solid OpenSCAD_Model
  facet normal -1 0 0
    outer loop
      vertex 0 0 2.9
      vertex 0 2.9 2.9
      vertex 0 0 0
    endloop
  endfacet
  facet normal -1 0 0
    outer loop
      vertex 0 0 0
      vertex 0 2.9 2.9
      vertex 0 2.9 0
    endloop
  endfacet
  facet normal 0 0 1
    outer loop
      vertex 0 0 2.9
      vertex 8 0 2.9
      vertex 8 2.9 2.9
    endloop
  endfacet
  facet normal 0 0 1
    outer loop
      vertex 0 2.9 2.9
      vertex 0 0 2.9
      vertex 8 2.9 2.9
    endloop
  endfacet
  facet normal 0 -1 0
    outer loop
      vertex 0 0 0
      vertex 8 0 0
      vertex 8 0 2.9
    endloop
  endfacet
  facet normal 0 -1 0
    outer loop
      vertex 0 0 2.9
      vertex 0 0 0
      vertex 8 0 2.9
    endloop
  endfacet
  facet normal 0 0 -1
    outer loop
      vertex 0 2.9 0
      vertex 8 2.9 0
      vertex 0 0 0
    endloop
  endfacet
  facet normal 0 0 -1
    outer loop
      vertex 0 0 0
      vertex 8 2.9 0
      vertex 8 0 0
    endloop
  endfacet
  facet normal 0 1 0
    outer loop
      vertex 0 2.9 2.9
      vertex 8 2.9 2.9
      vertex 0 2.9 0
    endloop
  endfacet
  facet normal 0 1 0
    outer loop
      vertex 0 2.9 0
      vertex 8 2.9 2.9
      vertex 8 2.9 0
    endloop
  endfacet
  facet normal 1 0 0
    outer loop
      vertex 8 0 0
      vertex 8 2.9 0
      vertex 8 2.9 2.9
    endloop
  endfacet
  facet normal 1 0 0
    outer loop
      vertex 8 0 2.9
      vertex 8 0 0
      vertex 8 2.9 2.9
    endloop
  endfacet
endsolid OpenSCAD_Model
