solid OpenSCAD_Model
  facet normal -1 0 0
    outer loop
      vertex 37.75 -19.9429 -2.525
      vertex 37.75 -19.9429 2.525
      vertex 37.75 19.9429 -2.525
    endloop
  endfacet
  facet normal -1 0 0
    outer loop
      vertex 37.75 19.9429 -2.525
      vertex 37.75 -19.9429 2.525
      vertex 37.75 19.9429 2.525
    endloop
  endfacet
  facet normal 0 -1 0
    outer loop
      vertex 37.75 -19.9429 2.525
      vertex 37.75 -19.9429 -2.525
      vertex 45.25 -19.9429 -2.525
    endloop
  endfacet
  facet normal 0 -1 0
    outer loop
      vertex 45.25 -19.9429 2.525
      vertex 37.75 -19.9429 2.525
      vertex 45.25 -19.9429 -2.525
    endloop
  endfacet
  facet normal 0 0 -1
    outer loop
      vertex 40.25 17.4429 -2.525
      vertex 37.75 19.9429 -2.525
      vertex 45.25 19.9429 -2.525
    endloop
  endfacet
  facet normal 0 0 -1
    outer loop
      vertex 43.75 17.4429 -2.525
      vertex 40.25 17.4429 -2.525
      vertex 45.25 19.9429 -2.525
    endloop
  endfacet
  facet normal 0 0 -1
    outer loop
      vertex 37.75 -19.9429 -2.525
      vertex 37.75 19.9429 -2.525
      vertex 40.25 -17.4429 -2.525
    endloop
  endfacet
  facet normal 0 0 -1
    outer loop
      vertex 37.75 -19.9429 -2.525
      vertex 40.25 -17.4429 -2.525
      vertex 45.25 -19.9429 -2.525
    endloop
  endfacet
  facet normal 0 0 -1
    outer loop
      vertex 43.75 17.4429 -2.525
      vertex 45.25 -19.9429 -2.525
      vertex 43.75 -17.4429 -2.525
    endloop
  endfacet
  facet normal 0 0 -1
    outer loop
      vertex 40.25 -17.4429 -2.525
      vertex 43.75 -17.4429 -2.525
      vertex 45.25 -19.9429 -2.525
    endloop
  endfacet
  facet normal 0 0 -1
    outer loop
      vertex 45.25 -19.9429 -2.525
      vertex 43.75 17.4429 -2.525
      vertex 45.25 19.9429 -2.525
    endloop
  endfacet
  facet normal 0 0 -1
    outer loop
      vertex 40.25 -17.4429 -2.525
      vertex 37.75 19.9429 -2.525
      vertex 40.25 17.4429 -2.525
    endloop
  endfacet
  facet normal 0 1 0
    outer loop
      vertex 37.75 19.9429 -2.525
      vertex 37.75 19.9429 2.525
      vertex 45.25 19.9429 -2.525
    endloop
  endfacet
  facet normal 0 1 0
    outer loop
      vertex 45.25 19.9429 -2.525
      vertex 37.75 19.9429 2.525
      vertex 45.25 19.9429 2.525
    endloop
  endfacet
  facet normal 0 0 1
    outer loop
      vertex 40.25 -17.4429 2.525
      vertex 37.75 -19.9429 2.525
      vertex 45.25 -19.9429 2.525
    endloop
  endfacet
  facet normal 0 0 1
    outer loop
      vertex 43.75 -17.4429 2.525
      vertex 40.25 -17.4429 2.525
      vertex 45.25 -19.9429 2.525
    endloop
  endfacet
  facet normal 0 0 1
    outer loop
      vertex 37.75 19.9429 2.525
      vertex 37.75 -19.9429 2.525
      vertex 40.25 -17.4429 2.525
    endloop
  endfacet
  facet normal 0 0 1
    outer loop
      vertex 45.25 19.9429 2.525
      vertex 37.75 19.9429 2.525
      vertex 40.25 17.4429 2.525
    endloop
  endfacet
  facet normal 0 0 1
    outer loop
      vertex 45.25 19.9429 2.525
      vertex 43.75 17.4429 2.525
      vertex 45.25 -19.9429 2.525
    endloop
  endfacet
  facet normal 0 0 1
    outer loop
      vertex 45.25 19.9429 2.525
      vertex 40.25 17.4429 2.525
      vertex 43.75 17.4429 2.525
    endloop
  endfacet
  facet normal 0 0 1
    outer loop
      vertex 43.75 17.4429 2.525
      vertex 43.75 -17.4429 2.525
      vertex 45.25 -19.9429 2.525
    endloop
  endfacet
  facet normal 0 0 1
    outer loop
      vertex 40.25 -17.4429 2.525
      vertex 40.25 17.4429 2.525
      vertex 37.75 19.9429 2.525
    endloop
  endfacet
  facet normal 1 0 0
    outer loop
      vertex 45.25 -19.9429 2.525
      vertex 45.25 -19.9429 -2.525
      vertex 45.25 19.9429 -2.525
    endloop
  endfacet
  facet normal 1 0 0
    outer loop
      vertex 45.25 19.9429 2.525
      vertex 45.25 -19.9429 2.525
      vertex 45.25 19.9429 -2.525
    endloop
  endfacet
  facet normal 1 0 0
    outer loop
      vertex 40.25 17.4429 -2.525
      vertex 40.25 17.4429 2.525
      vertex 40.25 -17.4429 2.525
    endloop
  endfacet
  facet normal 1 0 0
    outer loop
      vertex 40.25 -17.4429 -2.525
      vertex 40.25 17.4429 -2.525
      vertex 40.25 -17.4429 2.525
    endloop
  endfacet
  facet normal 0 -1 0
    outer loop
      vertex 43.75 17.4429 -2.525
      vertex 43.75 17.4429 2.525
      vertex 40.25 17.4429 2.525
    endloop
  endfacet
  facet normal 0 -1 0
    outer loop
      vertex 40.25 17.4429 -2.525
      vertex 43.75 17.4429 -2.525
      vertex 40.25 17.4429 2.525
    endloop
  endfacet
  facet normal -1 0 0
    outer loop
      vertex 43.75 17.4429 2.525
      vertex 43.75 17.4429 -2.525
      vertex 43.75 -17.4429 2.525
    endloop
  endfacet
  facet normal -1 0 0
    outer loop
      vertex 43.75 -17.4429 2.525
      vertex 43.75 17.4429 -2.525
      vertex 43.75 -17.4429 -2.525
    endloop
  endfacet
  facet normal 0 1 0
    outer loop
      vertex 43.75 -17.4429 2.525
      vertex 43.75 -17.4429 -2.525
      vertex 40.25 -17.4429 2.525
    endloop
  endfacet
  facet normal 0 1 0
    outer loop
      vertex 40.25 -17.4429 2.525
      vertex 43.75 -17.4429 -2.525
      vertex 40.25 -17.4429 -2.525
    endloop
  endfacet
endsolid OpenSCAD_Model
