solid OpenSCAD_Model
  facet normal 0 0 -1
    outer loop
      vertex -15.1 0 5
      vertex -14.77 3.13947 5
      vertex -14.77 -3.13947 5
    endloop
  endfacet
  facet normal 0 0 -1
    outer loop
      vertex -14.77 -3.13947 5
      vertex -14.77 3.13947 5
      vertex -13.7945 6.14172 5
    endloop
  endfacet
  facet normal 0 0 -1
    outer loop
      vertex -14.77 -3.13947 5
      vertex -13.7945 6.14172 5
      vertex -12.2162 8.87556 5
    endloop
  endfacet
  facet normal 0 0 -1
    outer loop
      vertex -14.77 -3.13947 5
      vertex -12.2162 8.87556 5
      vertex -10.1039 11.2215 5
    endloop
  endfacet
  facet normal 0 0 -1
    outer loop
      vertex -10.4281 7 5
      vertex -10.1039 11.2215 5
      vertex -7.55 13.077 5
    endloop
  endfacet
  facet normal 0 0 -1
    outer loop
      vertex -5.05 8.74686 5
      vertex -1.57838 15.0173 5
      vertex 1.57838 15.0173 5
    endloop
  endfacet
  facet normal 0 0 -1
    outer loop
      vertex -1.05574 10.0447 5
      vertex 1.57838 15.0173 5
      vertex 4.66616 14.361 5
    endloop
  endfacet
  facet normal 0 0 -1
    outer loop
      vertex 1.05574 10.0447 5
      vertex 4.66616 14.361 5
      vertex 7.55 13.077 5
    endloop
  endfacet
  facet normal 0 0 -1
    outer loop
      vertex 5.05 8.74686 5
      vertex 7.55 13.077 5
      vertex 10.1039 11.2215 5
    endloop
  endfacet
  facet normal 0 0 -1
    outer loop
      vertex 7.21361 7 5
      vertex 10.1039 11.2215 5
      vertex 12.2162 8.87556 5
    endloop
  endfacet
  facet normal 0 0 -1
    outer loop
      vertex 10.4281 7 5
      vertex 12.2162 8.87556 5
      vertex 13.7945 6.14172 5
    endloop
  endfacet
  facet normal 0 0 -1
    outer loop
      vertex 11.5107 5.12488 5
      vertex 13.7945 6.14172 5
      vertex 14.77 3.13947 5
    endloop
  endfacet
  facet normal 0 0 -1
    outer loop
      vertex 12.6 0 5
      vertex 14.77 3.13947 5
      vertex 15.1 0 5
    endloop
  endfacet
  facet normal 0 0 -1
    outer loop
      vertex 12.3247 -2.61969 5
      vertex 15.1 0 5
      vertex 14.77 -3.13947 5
    endloop
  endfacet
  facet normal 0 0 -1
    outer loop
      vertex 11.5107 -5.12488 5
      vertex 14.77 -3.13947 5
      vertex 13.7945 -6.14172 5
    endloop
  endfacet
  facet normal 0 0 -1
    outer loop
      vertex 10.4281 -7 5
      vertex 13.7945 -6.14172 5
      vertex 12.2162 -8.87556 5
    endloop
  endfacet
  facet normal 0 0 -1
    outer loop
      vertex 5.05 -8.74686 5
      vertex 12.2162 -8.87556 5
      vertex 10.1039 -11.2215 5
    endloop
  endfacet
  facet normal 0 0 -1
    outer loop
      vertex 1.05574 -10.0447 5
      vertex 10.1039 -11.2215 5
      vertex 7.55 -13.077 5
    endloop
  endfacet
  facet normal 0 0 -1
    outer loop
      vertex -1.05574 -10.0447 5
      vertex 7.55 -13.077 5
      vertex 4.66616 -14.361 5
    endloop
  endfacet
  facet normal 0 0 -1
    outer loop
      vertex -10.4281 -7 5
      vertex 1.57838 -15.0173 5
      vertex -1.57838 -15.0173 5
    endloop
  endfacet
  facet normal 0 0 -1
    outer loop
      vertex -14.77 -3.13947 5
      vertex -1.57838 -15.0173 5
      vertex -4.66616 -14.361 5
    endloop
  endfacet
  facet normal 0 0 -1
    outer loop
      vertex -14.77 -3.13947 5
      vertex -4.66616 -14.361 5
      vertex -7.55 -13.077 5
    endloop
  endfacet
  facet normal 0 0 -1
    outer loop
      vertex -14.77 -3.13947 5
      vertex -7.55 -13.077 5
      vertex -10.1039 -11.2215 5
    endloop
  endfacet
  facet normal 0 0 -1
    outer loop
      vertex -14.77 -3.13947 5
      vertex -10.1039 -11.2215 5
      vertex -12.2162 -8.87556 5
    endloop
  endfacet
  facet normal 0 0 -1
    outer loop
      vertex -14.77 -3.13947 5
      vertex -12.2162 -8.87556 5
      vertex -13.7945 -6.14172 5
    endloop
  endfacet
  facet normal 0 0 -1
    outer loop
      vertex -12.3247 -2.61969 5
      vertex -14.77 -3.13947 5
      vertex -12.6 0 5
    endloop
  endfacet
  facet normal 0 0 -1
    outer loop
      vertex -11.5107 -5.12488 5
      vertex -14.77 -3.13947 5
      vertex -12.3247 -2.61969 5
    endloop
  endfacet
  facet normal 0 0 -1
    outer loop
      vertex -10.4281 -7 5
      vertex -14.77 -3.13947 5
      vertex -11.5107 -5.12488 5
    endloop
  endfacet
  facet normal 0 0 -1
    outer loop
      vertex -6.75822 -7.50576 5
      vertex -5.05 -8.74686 5
      vertex 1.57838 -15.0173 5
    endloop
  endfacet
  facet normal 0 0 -1
    outer loop
      vertex -5.05 -8.74686 5
      vertex 4.66616 -14.361 5
      vertex 1.57838 -15.0173 5
    endloop
  endfacet
  facet normal 0 0 -1
    outer loop
      vertex -14.77 -3.13947 5
      vertex -10.4281 -7 5
      vertex -1.57838 -15.0173 5
    endloop
  endfacet
  facet normal 0 0 -1
    outer loop
      vertex -7.21361 -7 5
      vertex -6.75822 -7.50576 5
      vertex -10.4281 -7 5
    endloop
  endfacet
  facet normal 0 0 -1
    outer loop
      vertex -6.75822 -7.50576 5
      vertex 1.57838 -15.0173 5
      vertex -10.4281 -7 5
    endloop
  endfacet
  facet normal 0 0 -1
    outer loop
      vertex -1.05574 -10.0447 5
      vertex 4.66616 -14.361 5
      vertex -3.12107 -9.60567 5
    endloop
  endfacet
  facet normal 0 0 -1
    outer loop
      vertex 1.05574 -10.0447 5
      vertex 7.55 -13.077 5
      vertex -1.05574 -10.0447 5
    endloop
  endfacet
  facet normal 0 0 -1
    outer loop
      vertex 3.12107 -9.60567 5
      vertex 10.1039 -11.2215 5
      vertex 1.05574 -10.0447 5
    endloop
  endfacet
  facet normal 0 0 -1
    outer loop
      vertex 11.5107 -5.12488 5
      vertex 13.7945 -6.14172 5
      vertex 10.4281 -7 5
    endloop
  endfacet
  facet normal 0 0 -1
    outer loop
      vertex 6.75822 -7.50576 5
      vertex 10.4281 -7 5
      vertex 12.2162 -8.87556 5
    endloop
  endfacet
  facet normal 0 0 -1
    outer loop
      vertex 12.3247 2.61969 5
      vertex 14.77 3.13947 5
      vertex 12.6 0 5
    endloop
  endfacet
  facet normal 0 0 -1
    outer loop
      vertex -10.4281 7 5
      vertex -1.57838 15.0173 5
      vertex -7.21361 7 5
    endloop
  endfacet
  facet normal 0 0 -1
    outer loop
      vertex 10.4281 7 5
      vertex 13.7945 6.14172 5
      vertex 11.5107 5.12488 5
    endloop
  endfacet
  facet normal 0 0 -1
    outer loop
      vertex 6.75822 7.50576 5
      vertex 10.1039 11.2215 5
      vertex 7.21361 7 5
    endloop
  endfacet
  facet normal 0 0 -1
    outer loop
      vertex 11.5107 5.12488 5
      vertex 14.77 3.13947 5
      vertex 12.3247 2.61969 5
    endloop
  endfacet
  facet normal 0 0 -1
    outer loop
      vertex 12.6 0 5
      vertex 15.1 0 5
      vertex 12.3247 -2.61969 5
    endloop
  endfacet
  facet normal 0 0 -1
    outer loop
      vertex 3.12107 9.60567 5
      vertex 7.55 13.077 5
      vertex 5.05 8.74686 5
    endloop
  endfacet
  facet normal 0 0 -1
    outer loop
      vertex 12.3247 -2.61969 5
      vertex 14.77 -3.13947 5
      vertex 11.5107 -5.12488 5
    endloop
  endfacet
  facet normal 0 0 -1
    outer loop
      vertex 6.75822 -7.50576 5
      vertex 12.2162 -8.87556 5
      vertex 5.05 -8.74686 5
    endloop
  endfacet
  facet normal 0 0 -1
    outer loop
      vertex -3.12107 9.60567 5
      vertex 1.57838 15.0173 5
      vertex -1.05574 10.0447 5
    endloop
  endfacet
  facet normal 0 0 -1
    outer loop
      vertex 10.4281 -7 5
      vertex 6.75822 -7.50576 5
      vertex 7.21361 -7 5
    endloop
  endfacet
  facet normal 0 0 -1
    outer loop
      vertex -6.75822 7.50576 5
      vertex -1.57838 15.0173 5
      vertex -5.05 8.74686 5
    endloop
  endfacet
  facet normal 0 0 -1
    outer loop
      vertex -7.21361 7 5
      vertex -1.57838 15.0173 5
      vertex -6.75822 7.50576 5
    endloop
  endfacet
  facet normal 0 0 -1
    outer loop
      vertex 5.05 -8.74686 5
      vertex 10.1039 -11.2215 5
      vertex 3.12107 -9.60567 5
    endloop
  endfacet
  facet normal 0 0 -1
    outer loop
      vertex -3.12107 -9.60567 5
      vertex 4.66616 -14.361 5
      vertex -5.05 -8.74686 5
    endloop
  endfacet
  facet normal 0 0 -1
    outer loop
      vertex -11.5107 5.12488 5
      vertex -10.1039 11.2215 5
      vertex -10.4281 7 5
    endloop
  endfacet
  facet normal 0 0 -1
    outer loop
      vertex -14.77 -3.13947 5
      vertex -10.1039 11.2215 5
      vertex -11.5107 5.12488 5
    endloop
  endfacet
  facet normal 0 0 -1
    outer loop
      vertex -14.77 -3.13947 5
      vertex -11.5107 5.12488 5
      vertex -12.3247 2.61969 5
    endloop
  endfacet
  facet normal 0 0 -1
    outer loop
      vertex -12.6 0 5
      vertex -14.77 -3.13947 5
      vertex -12.3247 2.61969 5
    endloop
  endfacet
  facet normal 0 0 -1
    outer loop
      vertex -10.4281 7 5
      vertex -7.55 13.077 5
      vertex -4.66616 14.361 5
    endloop
  endfacet
  facet normal 0 0 -1
    outer loop
      vertex -10.4281 7 5
      vertex -4.66616 14.361 5
      vertex -1.57838 15.0173 5
    endloop
  endfacet
  facet normal 0 0 -1
    outer loop
      vertex -5.05 8.74686 5
      vertex 1.57838 15.0173 5
      vertex -3.12107 9.60567 5
    endloop
  endfacet
  facet normal 0 0 -1
    outer loop
      vertex -1.05574 10.0447 5
      vertex 4.66616 14.361 5
      vertex 1.05574 10.0447 5
    endloop
  endfacet
  facet normal 0 0 -1
    outer loop
      vertex 1.05574 10.0447 5
      vertex 7.55 13.077 5
      vertex 3.12107 9.60567 5
    endloop
  endfacet
  facet normal 0 0 -1
    outer loop
      vertex 7.21361 7 5
      vertex 12.2162 8.87556 5
      vertex 10.4281 7 5
    endloop
  endfacet
  facet normal 0 0 -1
    outer loop
      vertex 5.05 8.74686 5
      vertex 10.1039 11.2215 5
      vertex 6.75822 7.50576 5
    endloop
  endfacet
  facet normal -0.994522 0.104528 0
    outer loop
      vertex -15.1 0 5
      vertex -15.1 0 20
      vertex -14.77 3.13947 5
    endloop
  endfacet
  facet normal -0.994522 0.104528 0
    outer loop
      vertex -14.77 3.13947 5
      vertex -15.1 0 20
      vertex -14.77 3.13947 20
    endloop
  endfacet
  facet normal -0.994522 -0.104528 0
    outer loop
      vertex -15.1 0 5
      vertex -14.77 -3.13947 5
      vertex -15.1 0 20
    endloop
  endfacet
  facet normal -0.994522 -0.104528 0
    outer loop
      vertex -15.1 0 20
      vertex -14.77 -3.13947 5
      vertex -14.77 -3.13947 20
    endloop
  endfacet
  facet normal -0.951056 -0.309017 0
    outer loop
      vertex -14.77 -3.13947 5
      vertex -13.7945 -6.14172 5
      vertex -14.77 -3.13947 20
    endloop
  endfacet
  facet normal -0.951056 -0.309017 0
    outer loop
      vertex -14.77 -3.13947 20
      vertex -13.7945 -6.14172 5
      vertex -13.7945 -6.14172 20
    endloop
  endfacet
  facet normal -0.866026 -0.5 0
    outer loop
      vertex -13.7945 -6.14172 5
      vertex -12.2162 -8.87556 5
      vertex -13.7945 -6.14172 20
    endloop
  endfacet
  facet normal -0.866026 -0.5 0
    outer loop
      vertex -13.7945 -6.14172 20
      vertex -12.2162 -8.87556 5
      vertex -12.2162 -8.87556 20
    endloop
  endfacet
  facet normal -0.743145 -0.669131 0
    outer loop
      vertex -12.2162 -8.87556 5
      vertex -10.1039 -11.2215 5
      vertex -12.2162 -8.87556 20
    endloop
  endfacet
  facet normal -0.743145 -0.669131 0
    outer loop
      vertex -12.2162 -8.87556 20
      vertex -10.1039 -11.2215 5
      vertex -10.1039 -11.2215 20
    endloop
  endfacet
  facet normal -0.587785 -0.809017 0
    outer loop
      vertex -10.1039 -11.2215 20
      vertex -10.1039 -11.2215 5
      vertex -7.55 -13.077 5
    endloop
  endfacet
  facet normal -0.587785 -0.809017 0
    outer loop
      vertex -7.55 -13.077 20
      vertex -10.1039 -11.2215 20
      vertex -7.55 -13.077 5
    endloop
  endfacet
  facet normal -0.406736 -0.913546 0
    outer loop
      vertex -7.55 -13.077 20
      vertex -7.55 -13.077 5
      vertex -4.66616 -14.361 5
    endloop
  endfacet
  facet normal -0.406736 -0.913546 0
    outer loop
      vertex -4.66616 -14.361 20
      vertex -7.55 -13.077 20
      vertex -4.66616 -14.361 5
    endloop
  endfacet
  facet normal -0.207912 -0.978148 0
    outer loop
      vertex -4.66616 -14.361 20
      vertex -4.66616 -14.361 5
      vertex -1.57838 -15.0173 5
    endloop
  endfacet
  facet normal -0.207912 -0.978148 0
    outer loop
      vertex -1.84699 -14.9602 14.4605
      vertex -4.66616 -14.361 20
      vertex -1.57838 -15.0173 5
    endloop
  endfacet
  facet normal -0.207912 -0.978148 0
    outer loop
      vertex -1.57838 -15.0173 14.2463
      vertex -1.84699 -14.9602 14.4605
      vertex -1.57838 -15.0173 5
    endloop
  endfacet
  facet normal -0.207912 -0.978148 0
    outer loop
      vertex -1.57838 -15.0173 16.4537
      vertex -4.66616 -14.361 20
      vertex -1.84699 -14.9602 16.2395
    endloop
  endfacet
  facet normal -0.207912 -0.978148 0
    outer loop
      vertex -1.57838 -15.0173 20
      vertex -4.66616 -14.361 20
      vertex -1.57838 -15.0173 16.4537
    endloop
  endfacet
  facet normal -0.207912 -0.978148 0
    outer loop
      vertex -1.84699 -14.9602 14.4605
      vertex -1.84699 -14.9602 16.2395
      vertex -4.66616 -14.361 20
    endloop
  endfacet
  facet normal 0 -1 0
    outer loop
      vertex -1.57838 -15.0173 14.2463
      vertex -1.57838 -15.0173 5
      vertex 1.57838 -15.0173 5
    endloop
  endfacet
  facet normal 0 -1 0
    outer loop
      vertex -0.456168 -15.0173 13.3514
      vertex -1.57838 -15.0173 14.2463
      vertex 1.57838 -15.0173 5
    endloop
  endfacet
  facet normal 0 -1 0
    outer loop
      vertex 1.57838 -15.0173 14.3707
      vertex 1.27815 -15.0173 13.7472
      vertex 1.57838 -15.0173 5
    endloop
  endfacet
  facet normal 0 -1 0
    outer loop
      vertex 1.27815 -15.0173 13.7472
      vertex -0.456168 -15.0173 13.3514
      vertex 1.57838 -15.0173 5
    endloop
  endfacet
  facet normal 0.207912 -0.978148 0
    outer loop
      vertex 1.57838 -15.0173 14.3707
      vertex 1.57838 -15.0173 5
      vertex 4.66616 -14.361 5
    endloop
  endfacet
  facet normal 0.207912 -0.978148 0
    outer loop
      vertex 2.05 -14.917 15.35
      vertex 1.57838 -15.0173 14.3707
      vertex 4.66616 -14.361 20
    endloop
  endfacet
  facet normal 0.207912 -0.978148 0
    outer loop
      vertex 4.66616 -14.361 20
      vertex 1.57838 -15.0173 14.3707
      vertex 4.66616 -14.361 5
    endloop
  endfacet
  facet normal 0.207912 -0.978148 0
    outer loop
      vertex 1.57838 -15.0173 20
      vertex 1.57838 -15.0173 16.3293
      vertex 4.66616 -14.361 20
    endloop
  endfacet
  facet normal 0.207912 -0.978148 0
    outer loop
      vertex 1.57838 -15.0173 16.3293
      vertex 2.05 -14.917 15.35
      vertex 4.66616 -14.361 20
    endloop
  endfacet
  facet normal 0.406736 -0.913546 0
    outer loop
      vertex 4.66616 -14.361 20
      vertex 4.66616 -14.361 5
      vertex 7.55 -13.077 5
    endloop
  endfacet
  facet normal 0.406736 -0.913546 0
    outer loop
      vertex 7.55 -13.077 20
      vertex 4.66616 -14.361 20
      vertex 7.55 -13.077 5
    endloop
  endfacet
  facet normal 0.587785 -0.809017 0
    outer loop
      vertex 7.55 -13.077 20
      vertex 7.55 -13.077 5
      vertex 10.1039 -11.2215 5
    endloop
  endfacet
  facet normal 0.587785 -0.809017 0
    outer loop
      vertex 10.1039 -11.2215 20
      vertex 7.55 -13.077 20
      vertex 10.1039 -11.2215 5
    endloop
  endfacet
  facet normal 0.743145 -0.669131 0
    outer loop
      vertex 10.1039 -11.2215 20
      vertex 10.1039 -11.2215 5
      vertex 12.2162 -8.87556 5
    endloop
  endfacet
  facet normal 0.743145 -0.669131 0
    outer loop
      vertex 12.2162 -8.87556 20
      vertex 10.1039 -11.2215 20
      vertex 12.2162 -8.87556 5
    endloop
  endfacet
  facet normal 0.866026 -0.5 0
    outer loop
      vertex 12.2162 -8.87556 20
      vertex 12.2162 -8.87556 5
      vertex 13.7945 -6.14172 5
    endloop
  endfacet
  facet normal 0.866026 -0.5 0
    outer loop
      vertex 13.7945 -6.14172 20
      vertex 12.2162 -8.87556 20
      vertex 13.7945 -6.14172 5
    endloop
  endfacet
  facet normal 0.951056 -0.309017 0
    outer loop
      vertex 13.7945 -6.14172 20
      vertex 13.7945 -6.14172 5
      vertex 14.77 -3.13947 5
    endloop
  endfacet
  facet normal 0.951056 -0.309017 0
    outer loop
      vertex 14.7557 -3.18371 7.54605
      vertex 13.7945 -6.14172 20
      vertex 14.77 -3.13947 5
    endloop
  endfacet
  facet normal 0.951056 -0.309017 0
    outer loop
      vertex 14.77 -3.13947 7.49499
      vertex 14.7557 -3.18371 7.54605
      vertex 14.77 -3.13947 5
    endloop
  endfacet
  facet normal 0.951056 -0.309017 0
    outer loop
      vertex 14.77 -3.13947 10.2096
      vertex 13.7945 -6.14172 20
      vertex 14.6645 -3.46437 9.4981
    endloop
  endfacet
  facet normal 0.951056 -0.309017 0
    outer loop
      vertex 14.77 -3.13947 20
      vertex 13.7945 -6.14172 20
      vertex 14.77 -3.13947 10.2096
    endloop
  endfacet
  facet normal 0.951056 -0.309017 0
    outer loop
      vertex 14.7557 -3.18371 7.54605
      vertex 14.6645 -3.46437 9.4981
      vertex 13.7945 -6.14172 20
    endloop
  endfacet
  facet normal 0.994522 -0.104528 0
    outer loop
      vertex 14.9011 -1.89224 6.05561
      vertex 14.77 -3.13947 5
      vertex 15.1 0 5
    endloop
  endfacet
  facet normal 0.994522 -0.104528 0
    outer loop
      vertex 14.77 -3.13947 7.49499
      vertex 14.77 -3.13947 5
      vertex 14.9011 -1.89224 6.05561
    endloop
  endfacet
  facet normal 0.994522 -0.104528 0
    outer loop
      vertex 15.1 0 5.5
      vertex 14.9011 -1.89224 6.05561
      vertex 15.1 0 5
    endloop
  endfacet
  facet normal 0.994522 0.104528 0
    outer loop
      vertex 14.9011 1.89224 6.05561
      vertex 14.77 3.13947 5
      vertex 14.77 3.13947 7.49499
    endloop
  endfacet
  facet normal 0.994522 0.104528 0
    outer loop
      vertex 15.1 0 5
      vertex 14.77 3.13947 5
      vertex 14.9011 1.89224 6.05561
    endloop
  endfacet
  facet normal 0.994522 0.104528 0
    outer loop
      vertex 14.9011 1.89224 6.05561
      vertex 15.1 0 5.5
      vertex 15.1 0 5
    endloop
  endfacet
  facet normal 0.951056 0.309017 0
    outer loop
      vertex 14.77 3.13947 5
      vertex 13.7945 6.14172 5
      vertex 13.7945 6.14172 20
    endloop
  endfacet
  facet normal 0.951056 0.309017 0
    outer loop
      vertex 14.6645 3.46437 9.4981
      vertex 14.77 3.13947 5
      vertex 13.7945 6.14172 20
    endloop
  endfacet
  facet normal 0.951056 0.309017 0
    outer loop
      vertex 14.77 3.13947 20
      vertex 14.77 3.13947 10.2096
      vertex 13.7945 6.14172 20
    endloop
  endfacet
  facet normal 0.951056 0.309017 0
    outer loop
      vertex 14.77 3.13947 10.2096
      vertex 14.6645 3.46437 9.4981
      vertex 13.7945 6.14172 20
    endloop
  endfacet
  facet normal 0.951056 0.309017 0
    outer loop
      vertex 14.7557 3.18371 7.54605
      vertex 14.77 3.13947 5
      vertex 14.6645 3.46437 9.4981
    endloop
  endfacet
  facet normal 0.951056 0.309017 0
    outer loop
      vertex 14.77 3.13947 7.49499
      vertex 14.77 3.13947 5
      vertex 14.7557 3.18371 7.54605
    endloop
  endfacet
  facet normal 0.866026 0.5 0
    outer loop
      vertex 13.7945 6.14172 5
      vertex 12.2162 8.87556 5
      vertex 12.2162 8.87556 20
    endloop
  endfacet
  facet normal 0.866026 0.5 0
    outer loop
      vertex 13.7945 6.14172 20
      vertex 13.7945 6.14172 5
      vertex 12.2162 8.87556 20
    endloop
  endfacet
  facet normal 0.743145 0.669131 0
    outer loop
      vertex 12.2162 8.87556 5
      vertex 10.1039 11.2215 5
      vertex 10.1039 11.2215 20
    endloop
  endfacet
  facet normal 0.743145 0.669131 0
    outer loop
      vertex 12.2162 8.87556 20
      vertex 12.2162 8.87556 5
      vertex 10.1039 11.2215 20
    endloop
  endfacet
  facet normal 0.587785 0.809017 0
    outer loop
      vertex 7.55 13.077 5
      vertex 7.55 13.077 20
      vertex 10.1039 11.2215 5
    endloop
  endfacet
  facet normal 0.587785 0.809017 0
    outer loop
      vertex 10.1039 11.2215 5
      vertex 7.55 13.077 20
      vertex 10.1039 11.2215 20
    endloop
  endfacet
  facet normal 0.406736 0.913546 0
    outer loop
      vertex 4.66616 14.361 5
      vertex 4.66616 14.361 20
      vertex 7.55 13.077 5
    endloop
  endfacet
  facet normal 0.406736 0.913546 0
    outer loop
      vertex 7.55 13.077 5
      vertex 4.66616 14.361 20
      vertex 7.55 13.077 20
    endloop
  endfacet
  facet normal 0.207912 0.978148 0
    outer loop
      vertex 1.57838 15.0173 5
      vertex 1.57838 15.0173 14.3707
      vertex 4.66616 14.361 5
    endloop
  endfacet
  facet normal 0.207912 0.978148 0
    outer loop
      vertex 4.66616 14.361 5
      vertex 1.57838 15.0173 14.3707
      vertex 2.05 14.917 15.35
    endloop
  endfacet
  facet normal 0.207912 0.978148 0
    outer loop
      vertex 2.05 14.917 15.35
      vertex 1.57838 15.0173 16.3293
      vertex 1.57838 15.0173 20
    endloop
  endfacet
  facet normal 0.207912 0.978148 0
    outer loop
      vertex 2.05 14.917 15.35
      vertex 1.57838 15.0173 20
      vertex 4.66616 14.361 5
    endloop
  endfacet
  facet normal 0.207912 0.978148 0
    outer loop
      vertex 4.66616 14.361 5
      vertex 1.57838 15.0173 20
      vertex 4.66616 14.361 20
    endloop
  endfacet
  facet normal 0 1 0
    outer loop
      vertex -1.57838 15.0173 5
      vertex -1.57838 15.0173 14.2463
      vertex 1.57838 15.0173 5
    endloop
  endfacet
  facet normal 0 1 0
    outer loop
      vertex 1.57838 15.0173 5
      vertex -1.57838 15.0173 14.2463
      vertex -0.456168 15.0173 13.3514
    endloop
  endfacet
  facet normal 0 1 0
    outer loop
      vertex 1.57838 15.0173 5
      vertex -0.456168 15.0173 13.3514
      vertex 1.27815 15.0173 13.7472
    endloop
  endfacet
  facet normal 0 1 0
    outer loop
      vertex 1.27815 15.0173 13.7472
      vertex 1.57838 15.0173 14.3707
      vertex 1.57838 15.0173 5
    endloop
  endfacet
  facet normal -0.207912 0.978148 0
    outer loop
      vertex -4.66616 14.361 5
      vertex -4.66616 14.361 20
      vertex -1.57838 15.0173 5
    endloop
  endfacet
  facet normal -0.207912 0.978148 0
    outer loop
      vertex -1.57838 15.0173 16.4537
      vertex -4.66616 14.361 20
      vertex -1.57838 15.0173 20
    endloop
  endfacet
  facet normal -0.207912 0.978148 0
    outer loop
      vertex -1.84699 14.9602 16.2395
      vertex -4.66616 14.361 20
      vertex -1.57838 15.0173 16.4537
    endloop
  endfacet
  facet normal -0.207912 0.978148 0
    outer loop
      vertex -1.84699 14.9602 14.4605
      vertex -4.66616 14.361 20
      vertex -1.84699 14.9602 16.2395
    endloop
  endfacet
  facet normal -0.207912 0.978148 0
    outer loop
      vertex -1.57838 15.0173 5
      vertex -4.66616 14.361 20
      vertex -1.84699 14.9602 14.4605
    endloop
  endfacet
  facet normal -0.207912 0.978148 0
    outer loop
      vertex -1.57838 15.0173 14.2463
      vertex -1.57838 15.0173 5
      vertex -1.84699 14.9602 14.4605
    endloop
  endfacet
  facet normal -0.406736 0.913546 0
    outer loop
      vertex -7.55 13.077 5
      vertex -7.55 13.077 20
      vertex -4.66616 14.361 5
    endloop
  endfacet
  facet normal -0.406736 0.913546 0
    outer loop
      vertex -4.66616 14.361 5
      vertex -7.55 13.077 20
      vertex -4.66616 14.361 20
    endloop
  endfacet
  facet normal -0.587785 0.809017 0
    outer loop
      vertex -10.1039 11.2215 5
      vertex -10.1039 11.2215 20
      vertex -7.55 13.077 5
    endloop
  endfacet
  facet normal -0.587785 0.809017 0
    outer loop
      vertex -7.55 13.077 5
      vertex -10.1039 11.2215 20
      vertex -7.55 13.077 20
    endloop
  endfacet
  facet normal -0.743145 0.669131 0
    outer loop
      vertex -12.2162 8.87556 5
      vertex -12.2162 8.87556 20
      vertex -10.1039 11.2215 5
    endloop
  endfacet
  facet normal -0.743145 0.669131 0
    outer loop
      vertex -10.1039 11.2215 5
      vertex -12.2162 8.87556 20
      vertex -10.1039 11.2215 20
    endloop
  endfacet
  facet normal -0.866026 0.5 0
    outer loop
      vertex -13.7945 6.14172 5
      vertex -13.7945 6.14172 20
      vertex -12.2162 8.87556 5
    endloop
  endfacet
  facet normal -0.866026 0.5 0
    outer loop
      vertex -12.2162 8.87556 5
      vertex -13.7945 6.14172 20
      vertex -12.2162 8.87556 20
    endloop
  endfacet
  facet normal -0.951056 0.309017 0
    outer loop
      vertex -14.77 3.13947 5
      vertex -14.77 3.13947 20
      vertex -13.7945 6.14172 5
    endloop
  endfacet
  facet normal -0.951056 0.309017 0
    outer loop
      vertex -13.7945 6.14172 5
      vertex -14.77 3.13947 20
      vertex -13.7945 6.14172 20
    endloop
  endfacet
  facet normal 0.994522 -0.104528 0
    outer loop
      vertex -12.3247 2.61969 5
      vertex -12.3247 2.61969 20
      vertex -12.6 0 20
    endloop
  endfacet
  facet normal 0.994522 -0.104528 0
    outer loop
      vertex -12.6 0 5
      vertex -12.3247 2.61969 5
      vertex -12.6 0 20
    endloop
  endfacet
  facet normal 0.994522 0.104528 0
    outer loop
      vertex -12.6 0 20
      vertex -12.3247 -2.61969 20
      vertex -12.3247 -2.61969 5
    endloop
  endfacet
  facet normal 0.994522 0.104528 0
    outer loop
      vertex -12.6 0 5
      vertex -12.6 0 20
      vertex -12.3247 -2.61969 5
    endloop
  endfacet
  facet normal 0.951057 -0.309017 0
    outer loop
      vertex -11.5107 5.12488 5
      vertex -11.5107 5.12488 20
      vertex -12.3247 2.61969 20
    endloop
  endfacet
  facet normal 0.951057 -0.309017 0
    outer loop
      vertex -12.3247 2.61969 5
      vertex -11.5107 5.12488 5
      vertex -12.3247 2.61969 20
    endloop
  endfacet
  facet normal 0.866025 -0.5 0
    outer loop
      vertex -10.4281 7 5
      vertex -10.4281 7 20
      vertex -11.5107 5.12488 20
    endloop
  endfacet
  facet normal 0.866025 -0.5 0
    outer loop
      vertex -11.5107 5.12488 5
      vertex -10.4281 7 5
      vertex -11.5107 5.12488 20
    endloop
  endfacet
  facet normal 0 -1 0
    outer loop
      vertex -7.21361 7 5
      vertex -7.21361 7 20
      vertex -10.4281 7 20
    endloop
  endfacet
  facet normal 0 -1 0
    outer loop
      vertex -10.4281 7 5
      vertex -7.21361 7 5
      vertex -10.4281 7 20
    endloop
  endfacet
  facet normal 0.743145 -0.669131 0
    outer loop
      vertex -6.75822 7.50576 5
      vertex -6.75822 7.50576 20
      vertex -7.21361 7 20
    endloop
  endfacet
  facet normal 0.743145 -0.669131 0
    outer loop
      vertex -7.21361 7 5
      vertex -6.75822 7.50576 5
      vertex -7.21361 7 20
    endloop
  endfacet
  facet normal 0.587785 -0.809017 0
    outer loop
      vertex -5.05 8.74686 5
      vertex -5.05 8.74686 20
      vertex -6.75822 7.50576 20
    endloop
  endfacet
  facet normal 0.587785 -0.809017 0
    outer loop
      vertex -6.75822 7.50576 5
      vertex -5.05 8.74686 5
      vertex -6.75822 7.50576 20
    endloop
  endfacet
  facet normal 0.406737 -0.913545 0
    outer loop
      vertex -3.12107 9.60567 5
      vertex -3.12107 9.60567 20
      vertex -5.05 8.74686 20
    endloop
  endfacet
  facet normal 0.406737 -0.913545 0
    outer loop
      vertex -5.05 8.74686 5
      vertex -3.12107 9.60567 5
      vertex -5.05 8.74686 20
    endloop
  endfacet
  facet normal 0.207911 -0.978148 0
    outer loop
      vertex -1.84699 9.87649 16.2395
      vertex -3.12107 9.60567 20
      vertex -1.84699 9.87649 14.4605
    endloop
  endfacet
  facet normal 0.207911 -0.978148 0
    outer loop
      vertex -1.05574 10.0447 5
      vertex -1.05574 10.0447 13.8295
      vertex -1.84699 9.87649 14.4605
    endloop
  endfacet
  facet normal 0.207911 -0.978148 0
    outer loop
      vertex -3.12107 9.60567 20
      vertex -1.05574 10.0447 5
      vertex -1.84699 9.87649 14.4605
    endloop
  endfacet
  facet normal 0.207911 -0.978148 0
    outer loop
      vertex -1.05574 10.0447 16.8705
      vertex -1.05574 10.0447 20
      vertex -1.84699 9.87649 16.2395
    endloop
  endfacet
  facet normal 0.207911 -0.978148 0
    outer loop
      vertex -1.05574 10.0447 20
      vertex -3.12107 9.60567 20
      vertex -1.84699 9.87649 16.2395
    endloop
  endfacet
  facet normal 0.207911 -0.978148 0
    outer loop
      vertex -3.12107 9.60567 20
      vertex -3.12107 9.60567 5
      vertex -1.05574 10.0447 5
    endloop
  endfacet
  facet normal 0 -1 0
    outer loop
      vertex 1.05574 10.0447 5
      vertex 1.05574 10.0447 13.6965
      vertex -0.456168 10.0447 13.3514
    endloop
  endfacet
  facet normal 0 -1 0
    outer loop
      vertex -1.05574 10.0447 13.8295
      vertex 1.05574 10.0447 5
      vertex -0.456168 10.0447 13.3514
    endloop
  endfacet
  facet normal 0 -1 0
    outer loop
      vertex -1.05574 10.0447 13.8295
      vertex -1.05574 10.0447 5
      vertex 1.05574 10.0447 5
    endloop
  endfacet
  facet normal -0.207911 -0.978148 0
    outer loop
      vertex 2.05 9.83333 15.35
      vertex 3.12107 9.60567 20
      vertex 1.05574 10.0447 20
    endloop
  endfacet
  facet normal -0.207911 -0.978148 0
    outer loop
      vertex 1.05574 10.0447 17.0035
      vertex 1.27815 9.99739 16.9528
      vertex 1.05574 10.0447 20
    endloop
  endfacet
  facet normal -0.207911 -0.978148 0
    outer loop
      vertex 3.12107 9.60567 5
      vertex 3.12107 9.60567 20
      vertex 2.05 9.83333 15.35
    endloop
  endfacet
  facet normal -0.207911 -0.978148 0
    outer loop
      vertex 1.05574 10.0447 13.6965
      vertex 3.12107 9.60567 5
      vertex 1.27815 9.99739 13.7472
    endloop
  endfacet
  facet normal -0.207911 -0.978148 0
    outer loop
      vertex 1.05574 10.0447 5
      vertex 3.12107 9.60567 5
      vertex 1.05574 10.0447 13.6965
    endloop
  endfacet
  facet normal -0.207911 -0.978148 0
    outer loop
      vertex 1.27815 9.99739 16.9528
      vertex 2.05 9.83333 15.35
      vertex 1.05574 10.0447 20
    endloop
  endfacet
  facet normal -0.207911 -0.978148 0
    outer loop
      vertex 2.05 9.83333 15.35
      vertex 1.27815 9.99739 13.7472
      vertex 3.12107 9.60567 5
    endloop
  endfacet
  facet normal -0.406737 -0.913545 0
    outer loop
      vertex 5.05 8.74686 5
      vertex 5.05 8.74686 20
      vertex 3.12107 9.60567 20
    endloop
  endfacet
  facet normal -0.406737 -0.913545 0
    outer loop
      vertex 3.12107 9.60567 5
      vertex 5.05 8.74686 5
      vertex 3.12107 9.60567 20
    endloop
  endfacet
  facet normal -0.587785 -0.809017 0
    outer loop
      vertex 6.75822 7.50576 5
      vertex 6.75822 7.50576 20
      vertex 5.05 8.74686 20
    endloop
  endfacet
  facet normal -0.587785 -0.809017 0
    outer loop
      vertex 5.05 8.74686 5
      vertex 6.75822 7.50576 5
      vertex 5.05 8.74686 20
    endloop
  endfacet
  facet normal -0.743145 -0.669131 0
    outer loop
      vertex 7.21361 7 20
      vertex 6.75822 7.50576 20
      vertex 7.21361 7 5
    endloop
  endfacet
  facet normal -0.743145 -0.669131 0
    outer loop
      vertex 7.21361 7 5
      vertex 6.75822 7.50576 20
      vertex 6.75822 7.50576 5
    endloop
  endfacet
  facet normal 0 -1 0
    outer loop
      vertex 10.4281 7 5
      vertex 10.4281 7 20
      vertex 7.21361 7 20
    endloop
  endfacet
  facet normal 0 -1 0
    outer loop
      vertex 7.21361 7 5
      vertex 10.4281 7 5
      vertex 7.21361 7 20
    endloop
  endfacet
  facet normal -0.866025 -0.5 0
    outer loop
      vertex 11.5107 5.12488 20
      vertex 10.4281 7 20
      vertex 11.5107 5.12488 5
    endloop
  endfacet
  facet normal -0.866025 -0.5 0
    outer loop
      vertex 11.5107 5.12488 5
      vertex 10.4281 7 20
      vertex 10.4281 7 5
    endloop
  endfacet
  facet normal -0.951057 -0.309017 0
    outer loop
      vertex 12.3247 2.61969 6.89513
      vertex 12.1414 3.18371 7.54605
      vertex 12.3247 2.61969 5
    endloop
  endfacet
  facet normal -0.951057 -0.309017 0
    outer loop
      vertex 11.5107 5.12488 5
      vertex 12.1414 3.18371 7.54605
      vertex 11.5107 5.12488 20
    endloop
  endfacet
  facet normal -0.951057 -0.309017 0
    outer loop
      vertex 11.5107 5.12488 20
      vertex 12.0502 3.46437 9.4981
      vertex 12.3247 2.61969 20
    endloop
  endfacet
  facet normal -0.951057 -0.309017 0
    outer loop
      vertex 12.3247 2.61969 20
      vertex 12.3164 2.64512 11.292
      vertex 12.3247 2.61969 11.3084
    endloop
  endfacet
  facet normal -0.951057 -0.309017 0
    outer loop
      vertex 12.0502 3.46437 9.4981
      vertex 12.3164 2.64512 11.292
      vertex 12.3247 2.61969 20
    endloop
  endfacet
  facet normal -0.951057 -0.309017 0
    outer loop
      vertex 12.1414 3.18371 7.54605
      vertex 12.0502 3.46437 9.4981
      vertex 11.5107 5.12488 20
    endloop
  endfacet
  facet normal -0.951057 -0.309017 0
    outer loop
      vertex 12.3247 2.61969 5
      vertex 12.1414 3.18371 7.54605
      vertex 11.5107 5.12488 5
    endloop
  endfacet
  facet normal -0.994522 -0.104528 0
    outer loop
      vertex 12.6 0 5.5
      vertex 12.4011 1.89224 6.05561
      vertex 12.6 0 5
    endloop
  endfacet
  facet normal -0.994522 -0.104528 0
    outer loop
      vertex 12.3247 2.61969 5
      vertex 12.4011 1.89224 6.05561
      vertex 12.3247 2.61969 6.89513
    endloop
  endfacet
  facet normal -0.994522 -0.104528 0
    outer loop
      vertex 12.6 0 5
      vertex 12.4011 1.89224 6.05561
      vertex 12.3247 2.61969 5
    endloop
  endfacet
  facet normal -0.994522 0.104528 0
    outer loop
      vertex 12.4011 -1.89224 6.05561
      vertex 12.6 0 5.5
      vertex 12.6 0 5
    endloop
  endfacet
  facet normal -0.994522 0.104528 0
    outer loop
      vertex 12.4011 -1.89224 6.05561
      vertex 12.6 0 5
      vertex 12.3247 -2.61969 5
    endloop
  endfacet
  facet normal -0.994522 0.104528 0
    outer loop
      vertex 12.4011 -1.89224 6.05561
      vertex 12.3247 -2.61969 5
      vertex 12.3247 -2.61969 6.89513
    endloop
  endfacet
  facet normal -0.951057 0.309017 0
    outer loop
      vertex 12.3247 -2.61969 20
      vertex 12.3247 -2.61969 11.3084
      vertex 11.5107 -5.12488 20
    endloop
  endfacet
  facet normal -0.951057 0.309017 0
    outer loop
      vertex 11.5107 -5.12488 20
      vertex 12.3247 -2.61969 11.3084
      vertex 12.3164 -2.64512 11.292
    endloop
  endfacet
  facet normal -0.951057 0.309017 0
    outer loop
      vertex 11.5107 -5.12488 20
      vertex 12.3164 -2.64512 11.292
      vertex 12.0502 -3.46437 9.4981
    endloop
  endfacet
  facet normal -0.951057 0.309017 0
    outer loop
      vertex 12.0502 -3.46437 9.4981
      vertex 12.1414 -3.18371 7.54605
      vertex 11.5107 -5.12488 20
    endloop
  endfacet
  facet normal -0.951057 0.309017 0
    outer loop
      vertex 12.1414 -3.18371 7.54605
      vertex 12.3247 -2.61969 6.89513
      vertex 12.3247 -2.61969 5
    endloop
  endfacet
  facet normal -0.951057 0.309017 0
    outer loop
      vertex 12.1414 -3.18371 7.54605
      vertex 12.3247 -2.61969 5
      vertex 11.5107 -5.12488 5
    endloop
  endfacet
  facet normal -0.951057 0.309017 0
    outer loop
      vertex 12.1414 -3.18371 7.54605
      vertex 11.5107 -5.12488 5
      vertex 11.5107 -5.12488 20
    endloop
  endfacet
  facet normal -0.866025 0.5 0
    outer loop
      vertex 11.5107 -5.12488 20
      vertex 11.5107 -5.12488 5
      vertex 10.4281 -7 20
    endloop
  endfacet
  facet normal -0.866025 0.5 0
    outer loop
      vertex 10.4281 -7 20
      vertex 11.5107 -5.12488 5
      vertex 10.4281 -7 5
    endloop
  endfacet
  facet normal 0 1 0
    outer loop
      vertex 10.4281 -7 20
      vertex 10.4281 -7 5
      vertex 7.21361 -7 20
    endloop
  endfacet
  facet normal 0 1 0
    outer loop
      vertex 7.21361 -7 20
      vertex 10.4281 -7 5
      vertex 7.21361 -7 5
    endloop
  endfacet
  facet normal -0.743145 0.669131 0
    outer loop
      vertex 7.21361 -7 20
      vertex 7.21361 -7 5
      vertex 6.75822 -7.50576 20
    endloop
  endfacet
  facet normal -0.743145 0.669131 0
    outer loop
      vertex 6.75822 -7.50576 20
      vertex 7.21361 -7 5
      vertex 6.75822 -7.50576 5
    endloop
  endfacet
  facet normal -0.587785 0.809017 0
    outer loop
      vertex 6.75822 -7.50576 20
      vertex 6.75822 -7.50576 5
      vertex 5.05 -8.74686 20
    endloop
  endfacet
  facet normal -0.587785 0.809017 0
    outer loop
      vertex 5.05 -8.74686 20
      vertex 6.75822 -7.50576 5
      vertex 5.05 -8.74686 5
    endloop
  endfacet
  facet normal -0.406737 0.913545 0
    outer loop
      vertex 5.05 -8.74686 20
      vertex 5.05 -8.74686 5
      vertex 3.12107 -9.60567 20
    endloop
  endfacet
  facet normal -0.406737 0.913545 0
    outer loop
      vertex 3.12107 -9.60567 20
      vertex 5.05 -8.74686 5
      vertex 3.12107 -9.60567 5
    endloop
  endfacet
  facet normal -0.207911 0.978148 0
    outer loop
      vertex 3.12107 -9.60567 20
      vertex 2.05 -9.83333 15.35
      vertex 1.05574 -10.0447 20
    endloop
  endfacet
  facet normal -0.207911 0.978148 0
    outer loop
      vertex 1.05574 -10.0447 20
      vertex 1.27815 -9.99739 16.9528
      vertex 1.05574 -10.0447 17.0035
    endloop
  endfacet
  facet normal -0.207911 0.978148 0
    outer loop
      vertex 2.05 -9.83333 15.35
      vertex 1.27815 -9.99739 16.9528
      vertex 1.05574 -10.0447 20
    endloop
  endfacet
  facet normal -0.207911 0.978148 0
    outer loop
      vertex 3.12107 -9.60567 5
      vertex 2.05 -9.83333 15.35
      vertex 3.12107 -9.60567 20
    endloop
  endfacet
  facet normal -0.207911 0.978148 0
    outer loop
      vertex 1.27815 -9.99739 13.7472
      vertex 2.05 -9.83333 15.35
      vertex 3.12107 -9.60567 5
    endloop
  endfacet
  facet normal -0.207911 0.978148 0
    outer loop
      vertex 1.27815 -9.99739 13.7472
      vertex 3.12107 -9.60567 5
      vertex 1.05574 -10.0447 13.6965
    endloop
  endfacet
  facet normal -0.207911 0.978148 0
    outer loop
      vertex 3.12107 -9.60567 5
      vertex 1.05574 -10.0447 5
      vertex 1.05574 -10.0447 13.6965
    endloop
  endfacet
  facet normal 0 1 0
    outer loop
      vertex -0.456168 -10.0447 13.3514
      vertex 1.05574 -10.0447 13.6965
      vertex 1.05574 -10.0447 5
    endloop
  endfacet
  facet normal 0 1 0
    outer loop
      vertex -0.456168 -10.0447 13.3514
      vertex 1.05574 -10.0447 5
      vertex -1.05574 -10.0447 13.8295
    endloop
  endfacet
  facet normal 0 1 0
    outer loop
      vertex 1.05574 -10.0447 5
      vertex -1.05574 -10.0447 5
      vertex -1.05574 -10.0447 13.8295
    endloop
  endfacet
  facet normal 0.207911 0.978148 0
    outer loop
      vertex -1.05574 -10.0447 20
      vertex -1.05574 -10.0447 16.8705
      vertex -3.12107 -9.60567 20
    endloop
  endfacet
  facet normal 0.207911 0.978148 0
    outer loop
      vertex -3.12107 -9.60567 20
      vertex -1.05574 -10.0447 16.8705
      vertex -1.84699 -9.87649 16.2395
    endloop
  endfacet
  facet normal 0.207911 0.978148 0
    outer loop
      vertex -3.12107 -9.60567 20
      vertex -1.84699 -9.87649 16.2395
      vertex -1.84699 -9.87649 14.4605
    endloop
  endfacet
  facet normal 0.207911 0.978148 0
    outer loop
      vertex -1.84699 -9.87649 14.4605
      vertex -1.05574 -10.0447 13.8295
      vertex -1.05574 -10.0447 5
    endloop
  endfacet
  facet normal 0.207911 0.978148 0
    outer loop
      vertex -1.84699 -9.87649 14.4605
      vertex -1.05574 -10.0447 5
      vertex -3.12107 -9.60567 20
    endloop
  endfacet
  facet normal 0.207911 0.978148 0
    outer loop
      vertex -3.12107 -9.60567 20
      vertex -1.05574 -10.0447 5
      vertex -3.12107 -9.60567 5
    endloop
  endfacet
  facet normal 0.406737 0.913545 0
    outer loop
      vertex -3.12107 -9.60567 20
      vertex -3.12107 -9.60567 5
      vertex -5.05 -8.74686 20
    endloop
  endfacet
  facet normal 0.406737 0.913545 0
    outer loop
      vertex -5.05 -8.74686 20
      vertex -3.12107 -9.60567 5
      vertex -5.05 -8.74686 5
    endloop
  endfacet
  facet normal 0.587785 0.809017 0
    outer loop
      vertex -5.05 -8.74686 20
      vertex -5.05 -8.74686 5
      vertex -6.75822 -7.50576 20
    endloop
  endfacet
  facet normal 0.587785 0.809017 0
    outer loop
      vertex -6.75822 -7.50576 20
      vertex -5.05 -8.74686 5
      vertex -6.75822 -7.50576 5
    endloop
  endfacet
  facet normal 0.743145 0.669131 0
    outer loop
      vertex -7.21361 -7 20
      vertex -6.75822 -7.50576 20
      vertex -6.75822 -7.50576 5
    endloop
  endfacet
  facet normal 0.743145 0.669131 0
    outer loop
      vertex -7.21361 -7 5
      vertex -7.21361 -7 20
      vertex -6.75822 -7.50576 5
    endloop
  endfacet
  facet normal 0 1 0
    outer loop
      vertex -7.21361 -7 20
      vertex -7.21361 -7 5
      vertex -10.4281 -7 20
    endloop
  endfacet
  facet normal 0 1 0
    outer loop
      vertex -10.4281 -7 20
      vertex -7.21361 -7 5
      vertex -10.4281 -7 5
    endloop
  endfacet
  facet normal 0.866025 0.5 0
    outer loop
      vertex -11.5107 -5.12488 20
      vertex -10.4281 -7 20
      vertex -10.4281 -7 5
    endloop
  endfacet
  facet normal 0.866025 0.5 0
    outer loop
      vertex -11.5107 -5.12488 5
      vertex -11.5107 -5.12488 20
      vertex -10.4281 -7 5
    endloop
  endfacet
  facet normal 0.951057 0.309017 0
    outer loop
      vertex -12.3247 -2.61969 20
      vertex -11.5107 -5.12488 20
      vertex -11.5107 -5.12488 5
    endloop
  endfacet
  facet normal 0.951057 0.309017 0
    outer loop
      vertex -12.3247 -2.61969 5
      vertex -12.3247 -2.61969 20
      vertex -11.5107 -5.12488 5
    endloop
  endfacet
  facet normal 0 0 1
    outer loop
      vertex -14.77 3.13947 20
      vertex -15.1 0 20
      vertex -14.77 -3.13947 20
    endloop
  endfacet
  facet normal 0 0 1
    outer loop
      vertex -12.2162 -8.87556 20
      vertex -14.77 3.13947 20
      vertex -13.7945 -6.14172 20
    endloop
  endfacet
  facet normal 0 0 1
    outer loop
      vertex -13.7945 -6.14172 20
      vertex -14.77 3.13947 20
      vertex -14.77 -3.13947 20
    endloop
  endfacet
  facet normal 0 0 1
    outer loop
      vertex -10.1039 -11.2215 20
      vertex -14.77 3.13947 20
      vertex -12.2162 -8.87556 20
    endloop
  endfacet
  facet normal 0 0 1
    outer loop
      vertex -12.3247 -2.61969 20
      vertex -14.77 3.13947 20
      vertex -10.1039 -11.2215 20
    endloop
  endfacet
  facet normal 0 0 1
    outer loop
      vertex 6.75822 -7.50576 20
      vertex 5.05 -8.74686 20
      vertex 10.1039 -11.2215 20
    endloop
  endfacet
  facet normal 0 0 1
    outer loop
      vertex 12.3247 2.61969 20
      vertex 12.6 0 20
      vertex 15.1 0 20
    endloop
  endfacet
  facet normal 0 0 1
    outer loop
      vertex 7.21361 7 20
      vertex 10.4281 7 20
      vertex 6.75822 7.50576 20
    endloop
  endfacet
  facet normal 0 0 1
    outer loop
      vertex -1.05574 10.0447 20
      vertex 1.05574 10.0447 20
      vertex 7.55 13.077 20
    endloop
  endfacet
  facet normal 0 0 1
    outer loop
      vertex -10.4281 7 20
      vertex -7.21361 7 20
      vertex -6.75822 7.50576 20
    endloop
  endfacet
  facet normal 0 0 1
    outer loop
      vertex -7.21361 -7 20
      vertex -10.4281 -7 20
      vertex -7.55 -13.077 20
    endloop
  endfacet
  facet normal 0 0 1
    outer loop
      vertex -4.66616 14.361 20
      vertex -14.77 3.13947 20
      vertex -1.57838 15.0173 20
    endloop
  endfacet
  facet normal 0 0 1
    outer loop
      vertex -7.55 13.077 20
      vertex -14.77 3.13947 20
      vertex -4.66616 14.361 20
    endloop
  endfacet
  facet normal 0 0 1
    outer loop
      vertex -10.1039 11.2215 20
      vertex -14.77 3.13947 20
      vertex -7.55 13.077 20
    endloop
  endfacet
  facet normal 0 0 1
    outer loop
      vertex -12.2162 8.87556 20
      vertex -14.77 3.13947 20
      vertex -10.1039 11.2215 20
    endloop
  endfacet
  facet normal 0 0 1
    outer loop
      vertex -13.7945 6.14172 20
      vertex -14.77 3.13947 20
      vertex -12.2162 8.87556 20
    endloop
  endfacet
  facet normal 0 0 1
    outer loop
      vertex -11.5107 -5.12488 20
      vertex -12.3247 -2.61969 20
      vertex -10.1039 -11.2215 20
    endloop
  endfacet
  facet normal 0 0 1
    outer loop
      vertex 11.5107 -5.12488 20
      vertex 10.4281 -7 20
      vertex 13.7945 -6.14172 20
    endloop
  endfacet
  facet normal 0 0 1
    outer loop
      vertex 10.4281 -7 20
      vertex 7.21361 -7 20
      vertex 12.2162 -8.87556 20
    endloop
  endfacet
  facet normal 0 0 1
    outer loop
      vertex -7.21361 -7 20
      vertex -7.55 -13.077 20
      vertex -4.66616 -14.361 20
    endloop
  endfacet
  facet normal 0 0 1
    outer loop
      vertex -10.4281 7 20
      vertex 4.66616 14.361 20
      vertex 1.57838 15.0173 20
    endloop
  endfacet
  facet normal 0 0 1
    outer loop
      vertex -1.57838 15.0173 20
      vertex -10.4281 7 20
      vertex 1.57838 15.0173 20
    endloop
  endfacet
  facet normal 0 0 1
    outer loop
      vertex -1.57838 15.0173 20
      vertex -14.77 3.13947 20
      vertex -10.4281 7 20
    endloop
  endfacet
  facet normal 0 0 1
    outer loop
      vertex 10.4281 7 20
      vertex 11.5107 5.12488 20
      vertex 13.7945 6.14172 20
    endloop
  endfacet
  facet normal 0 0 1
    outer loop
      vertex -10.4281 7 20
      vertex -6.75822 7.50576 20
      vertex -5.05 8.74686 20
    endloop
  endfacet
  facet normal 0 0 1
    outer loop
      vertex -10.4281 7 20
      vertex -5.05 8.74686 20
      vertex 4.66616 14.361 20
    endloop
  endfacet
  facet normal 0 0 1
    outer loop
      vertex -3.12107 9.60567 20
      vertex -1.05574 10.0447 20
      vertex 4.66616 14.361 20
    endloop
  endfacet
  facet normal 0 0 1
    outer loop
      vertex -11.5107 5.12488 20
      vertex -10.4281 7 20
      vertex -14.77 3.13947 20
    endloop
  endfacet
  facet normal 0 0 1
    outer loop
      vertex 4.66616 14.361 20
      vertex -1.05574 10.0447 20
      vertex 7.55 13.077 20
    endloop
  endfacet
  facet normal 0 0 1
    outer loop
      vertex 7.55 13.077 20
      vertex 1.05574 10.0447 20
      vertex 10.1039 11.2215 20
    endloop
  endfacet
  facet normal 0 0 1
    outer loop
      vertex 1.05574 10.0447 20
      vertex 3.12107 9.60567 20
      vertex 10.1039 11.2215 20
    endloop
  endfacet
  facet normal 0 0 1
    outer loop
      vertex 10.1039 11.2215 20
      vertex 5.05 8.74686 20
      vertex 12.2162 8.87556 20
    endloop
  endfacet
  facet normal 0 0 1
    outer loop
      vertex 12.2162 8.87556 20
      vertex 10.4281 7 20
      vertex 13.7945 6.14172 20
    endloop
  endfacet
  facet normal 0 0 1
    outer loop
      vertex 12.2162 8.87556 20
      vertex 6.75822 7.50576 20
      vertex 10.4281 7 20
    endloop
  endfacet
  facet normal 0 0 1
    outer loop
      vertex 13.7945 6.14172 20
      vertex 11.5107 5.12488 20
      vertex 14.77 3.13947 20
    endloop
  endfacet
  facet normal 0 0 1
    outer loop
      vertex 14.77 3.13947 20
      vertex 12.3247 2.61969 20
      vertex 15.1 0 20
    endloop
  endfacet
  facet normal 0 0 1
    outer loop
      vertex 15.1 0 20
      vertex 12.6 0 20
      vertex 14.77 -3.13947 20
    endloop
  endfacet
  facet normal 0 0 1
    outer loop
      vertex 12.6 0 20
      vertex 12.3247 -2.61969 20
      vertex 14.77 -3.13947 20
    endloop
  endfacet
  facet normal 0 0 1
    outer loop
      vertex 14.77 -3.13947 20
      vertex 11.5107 -5.12488 20
      vertex 13.7945 -6.14172 20
    endloop
  endfacet
  facet normal 0 0 1
    outer loop
      vertex 13.7945 -6.14172 20
      vertex 10.4281 -7 20
      vertex 12.2162 -8.87556 20
    endloop
  endfacet
  facet normal 0 0 1
    outer loop
      vertex -5.05 8.74686 20
      vertex -3.12107 9.60567 20
      vertex 4.66616 14.361 20
    endloop
  endfacet
  facet normal 0 0 1
    outer loop
      vertex 12.2162 -8.87556 20
      vertex 7.21361 -7 20
      vertex 10.1039 -11.2215 20
    endloop
  endfacet
  facet normal 0 0 1
    outer loop
      vertex 3.12107 9.60567 20
      vertex 5.05 8.74686 20
      vertex 10.1039 11.2215 20
    endloop
  endfacet
  facet normal 0 0 1
    outer loop
      vertex 7.21361 -7 20
      vertex 6.75822 -7.50576 20
      vertex 10.1039 -11.2215 20
    endloop
  endfacet
  facet normal 0 0 1
    outer loop
      vertex 10.1039 -11.2215 20
      vertex 5.05 -8.74686 20
      vertex 7.55 -13.077 20
    endloop
  endfacet
  facet normal 0 0 1
    outer loop
      vertex 5.05 8.74686 20
      vertex 6.75822 7.50576 20
      vertex 12.2162 8.87556 20
    endloop
  endfacet
  facet normal 0 0 1
    outer loop
      vertex 5.05 -8.74686 20
      vertex 3.12107 -9.60567 20
      vertex 7.55 -13.077 20
    endloop
  endfacet
  facet normal 0 0 1
    outer loop
      vertex 7.55 -13.077 20
      vertex 1.05574 -10.0447 20
      vertex 4.66616 -14.361 20
    endloop
  endfacet
  facet normal 0 0 1
    outer loop
      vertex -7.21361 -7 20
      vertex -4.66616 -14.361 20
      vertex -1.57838 -15.0173 20
    endloop
  endfacet
  facet normal 0 0 1
    outer loop
      vertex 4.66616 -14.361 20
      vertex -1.05574 -10.0447 20
      vertex 1.57838 -15.0173 20
    endloop
  endfacet
  facet normal 0 0 1
    outer loop
      vertex 11.5107 5.12488 20
      vertex 12.3247 2.61969 20
      vertex 14.77 3.13947 20
    endloop
  endfacet
  facet normal 0 0 1
    outer loop
      vertex -1.05574 -10.0447 20
      vertex -3.12107 -9.60567 20
      vertex 1.57838 -15.0173 20
    endloop
  endfacet
  facet normal 0 0 1
    outer loop
      vertex 1.57838 -15.0173 20
      vertex -5.05 -8.74686 20
      vertex -1.57838 -15.0173 20
    endloop
  endfacet
  facet normal 0 0 1
    outer loop
      vertex -5.05 -8.74686 20
      vertex -6.75822 -7.50576 20
      vertex -1.57838 -15.0173 20
    endloop
  endfacet
  facet normal 0 0 1
    outer loop
      vertex 12.3247 -2.61969 20
      vertex 11.5107 -5.12488 20
      vertex 14.77 -3.13947 20
    endloop
  endfacet
  facet normal 0 0 1
    outer loop
      vertex -6.75822 -7.50576 20
      vertex -7.21361 -7 20
      vertex -1.57838 -15.0173 20
    endloop
  endfacet
  facet normal 0 0 1
    outer loop
      vertex -7.55 -13.077 20
      vertex -10.4281 -7 20
      vertex -10.1039 -11.2215 20
    endloop
  endfacet
  facet normal 0 0 1
    outer loop
      vertex -10.4281 -7 20
      vertex -11.5107 -5.12488 20
      vertex -10.1039 -11.2215 20
    endloop
  endfacet
  facet normal 0 0 1
    outer loop
      vertex -12.3247 -2.61969 20
      vertex -12.6 0 20
      vertex -14.77 3.13947 20
    endloop
  endfacet
  facet normal 0 0 1
    outer loop
      vertex 1.05574 -10.0447 20
      vertex -1.05574 -10.0447 20
      vertex 4.66616 -14.361 20
    endloop
  endfacet
  facet normal 0 0 1
    outer loop
      vertex 3.12107 -9.60567 20
      vertex 1.05574 -10.0447 20
      vertex 7.55 -13.077 20
    endloop
  endfacet
  facet normal 0 0 1
    outer loop
      vertex -3.12107 -9.60567 20
      vertex -5.05 -8.74686 20
      vertex 1.57838 -15.0173 20
    endloop
  endfacet
  facet normal 0 0 1
    outer loop
      vertex -12.6 0 20
      vertex -12.3247 2.61969 20
      vertex -14.77 3.13947 20
    endloop
  endfacet
  facet normal 0 0 1
    outer loop
      vertex -12.3247 2.61969 20
      vertex -11.5107 5.12488 20
      vertex -14.77 3.13947 20
    endloop
  endfacet
  facet normal 0 -1 0
    outer loop
      vertex 1.27815 -15.0173 16.9528
      vertex 1.57838 -15.0173 20
      vertex -1.57838 -15.0173 20
    endloop
  endfacet
  facet normal 0 -1 0
    outer loop
      vertex -1.57838 -15.0173 20
      vertex -1.57838 -15.0173 16.4537
      vertex -0.456168 -15.0173 17.3486
    endloop
  endfacet
  facet normal 0 -1 0
    outer loop
      vertex 1.27815 -15.0173 16.9528
      vertex -1.57838 -15.0173 20
      vertex -0.456168 -15.0173 17.3486
    endloop
  endfacet
  facet normal 0 -1 0
    outer loop
      vertex 1.57838 -15.0173 16.3293
      vertex 1.57838 -15.0173 20
      vertex 1.27815 -15.0173 16.9528
    endloop
  endfacet
  facet normal 0.62349 -1.73601e-16 -0.781832
    outer loop
      vertex -1.05574 -10.0447 16.8705
      vertex -0.456168 -10.0447 17.3486
      vertex -0.456168 -15.0173 17.3486
    endloop
  endfacet
  facet normal 0.62349 -1.73601e-16 -0.781832
    outer loop
      vertex -1.05574 -10.0447 16.8705
      vertex -0.456168 -15.0173 17.3486
      vertex -1.84699 -9.87649 16.2395
    endloop
  endfacet
  facet normal 0.62349 -1.73601e-16 -0.781832
    outer loop
      vertex -0.456168 -15.0173 17.3486
      vertex -1.57838 -15.0173 16.4537
      vertex -1.84699 -9.87649 16.2395
    endloop
  endfacet
  facet normal 0.62349 -1.73601e-16 -0.781832
    outer loop
      vertex -1.57838 -15.0173 16.4537
      vertex -1.84699 -14.9602 16.2395
      vertex -1.84699 -9.87649 16.2395
    endloop
  endfacet
  facet normal 1 0 0
    outer loop
      vertex -1.84699 -9.87649 14.4605
      vertex -1.84699 -9.87649 16.2395
      vertex -1.84699 -14.9602 16.2395
    endloop
  endfacet
  facet normal 1 0 0
    outer loop
      vertex -1.84699 -14.9602 14.4605
      vertex -1.84699 -9.87649 14.4605
      vertex -1.84699 -14.9602 16.2395
    endloop
  endfacet
  facet normal 0.62349 1.73601e-16 0.781832
    outer loop
      vertex -1.57838 -15.0173 14.2463
      vertex -0.456168 -15.0173 13.3514
      vertex -0.456168 -10.0447 13.3514
    endloop
  endfacet
  facet normal 0.62349 1.73601e-16 0.781832
    outer loop
      vertex -1.84699 -9.87649 14.4605
      vertex -1.57838 -15.0173 14.2463
      vertex -1.05574 -10.0447 13.8295
    endloop
  endfacet
  facet normal 0.62349 1.73601e-16 0.781832
    outer loop
      vertex -1.05574 -10.0447 13.8295
      vertex -1.57838 -15.0173 14.2463
      vertex -0.456168 -10.0447 13.3514
    endloop
  endfacet
  facet normal 0.62349 1.73601e-16 0.781832
    outer loop
      vertex -1.84699 -14.9602 14.4605
      vertex -1.57838 -15.0173 14.2463
      vertex -1.84699 -9.87649 14.4605
    endloop
  endfacet
  facet normal -0.222521 2.16478e-16 0.974928
    outer loop
      vertex 1.27815 -15.0173 13.7472
      vertex 1.27815 -9.99739 13.7472
      vertex 1.05574 -10.0447 13.6965
    endloop
  endfacet
  facet normal -0.222521 2.16478e-16 0.974928
    outer loop
      vertex -0.456168 -10.0447 13.3514
      vertex 1.27815 -15.0173 13.7472
      vertex 1.05574 -10.0447 13.6965
    endloop
  endfacet
  facet normal -0.222521 2.16478e-16 0.974928
    outer loop
      vertex -0.456168 -10.0447 13.3514
      vertex -0.456168 -15.0173 13.3514
      vertex 1.27815 -15.0173 13.7472
    endloop
  endfacet
  facet normal -0.900969 9.63415e-17 0.433884
    outer loop
      vertex 2.05 -14.917 15.35
      vertex 2.05 -9.83333 15.35
      vertex 1.57838 -15.0173 14.3707
    endloop
  endfacet
  facet normal -0.900969 9.63415e-17 0.433884
    outer loop
      vertex 1.57838 -15.0173 14.3707
      vertex 2.05 -9.83333 15.35
      vertex 1.27815 -9.99739 13.7472
    endloop
  endfacet
  facet normal -0.900969 9.63415e-17 0.433884
    outer loop
      vertex 1.57838 -15.0173 14.3707
      vertex 1.27815 -9.99739 13.7472
      vertex 1.27815 -15.0173 13.7472
    endloop
  endfacet
  facet normal -0.900969 -9.63415e-17 -0.433884
    outer loop
      vertex 2.05 -9.83333 15.35
      vertex 2.05 -14.917 15.35
      vertex 1.27815 -9.99739 16.9528
    endloop
  endfacet
  facet normal -0.900969 -9.63415e-17 -0.433884
    outer loop
      vertex 1.27815 -9.99739 16.9528
      vertex 2.05 -14.917 15.35
      vertex 1.57838 -15.0173 16.3293
    endloop
  endfacet
  facet normal -0.900969 -9.63415e-17 -0.433884
    outer loop
      vertex 1.27815 -9.99739 16.9528
      vertex 1.57838 -15.0173 16.3293
      vertex 1.27815 -15.0173 16.9528
    endloop
  endfacet
  facet normal 0.994522 -0.104528 0
    outer loop
      vertex 14.77 -3.13947 20
      vertex 14.77 -3.13947 10.2096
      vertex 14.822 -2.64512 11.292
    endloop
  endfacet
  facet normal 0.994522 -0.104528 0
    outer loop
      vertex 14.9964 -0.986064 12.3582
      vertex 14.77 -3.13947 20
      vertex 14.822 -2.64512 11.292
    endloop
  endfacet
  facet normal 0.994522 -0.104528 0
    outer loop
      vertex 14.9964 -0.986064 12.3582
      vertex 15.1 0 12.3582
      vertex 14.77 -3.13947 20
    endloop
  endfacet
  facet normal 0.994522 -0.104528 0
    outer loop
      vertex 15.1 0 12.3582
      vertex 15.1 0 20
      vertex 14.77 -3.13947 20
    endloop
  endfacet
  facet normal 9.22406e-17 0.909632 -0.415415
    outer loop
      vertex 14.822 -2.64512 11.292
      vertex 14.77 -3.13947 10.2096
      vertex 12.3164 -2.64512 11.292
    endloop
  endfacet
  facet normal 9.22406e-17 0.909632 -0.415415
    outer loop
      vertex 12.3164 -2.64512 11.292
      vertex 14.77 -3.13947 10.2096
      vertex 14.6645 -3.46437 9.4981
    endloop
  endfacet
  facet normal 9.22406e-17 0.909632 -0.415415
    outer loop
      vertex 12.3164 -2.64512 11.292
      vertex 14.6645 -3.46437 9.4981
      vertex 12.0502 -3.46437 9.4981
    endloop
  endfacet
  facet normal -3.16002e-17 0.989821 0.142315
    outer loop
      vertex 14.7557 -3.18371 7.54605
      vertex 12.1414 -3.18371 7.54605
      vertex 14.6645 -3.46437 9.4981
    endloop
  endfacet
  facet normal -3.16002e-17 0.989821 0.142315
    outer loop
      vertex 14.6645 -3.46437 9.4981
      vertex 12.1414 -3.18371 7.54605
      vertex 12.0502 -3.46437 9.4981
    endloop
  endfacet
  facet normal -1.45408e-16 0.755749 0.654861
    outer loop
      vertex 14.77 -3.13947 7.49499
      vertex 14.9011 -1.89224 6.05561
      vertex 14.7557 -3.18371 7.54605
    endloop
  endfacet
  facet normal -1.45408e-16 0.755749 0.654861
    outer loop
      vertex 14.7557 -3.18371 7.54605
      vertex 14.9011 -1.89224 6.05561
      vertex 12.4011 -1.89224 6.05561
    endloop
  endfacet
  facet normal -1.45408e-16 0.755749 0.654861
    outer loop
      vertex 14.7557 -3.18371 7.54605
      vertex 12.4011 -1.89224 6.05561
      vertex 12.3247 -2.61969 6.89513
    endloop
  endfacet
  facet normal -1.45408e-16 0.755749 0.654861
    outer loop
      vertex 14.7557 -3.18371 7.54605
      vertex 12.3247 -2.61969 6.89513
      vertex 12.1414 -3.18371 7.54605
    endloop
  endfacet
  facet normal -2.1305e-16 0.281733 0.959493
    outer loop
      vertex 14.9011 -1.89224 6.05561
      vertex 15.1 0 5.5
      vertex 12.6 0 5.5
    endloop
  endfacet
  facet normal -2.1305e-16 0.281733 0.959493
    outer loop
      vertex 12.4011 -1.89224 6.05561
      vertex 14.9011 -1.89224 6.05561
      vertex 12.6 0 5.5
    endloop
  endfacet
  facet normal -2.1305e-16 -0.281733 0.959493
    outer loop
      vertex 12.6 0 5.5
      vertex 15.1 0 5.5
      vertex 14.9011 1.89224 6.05561
    endloop
  endfacet
  facet normal -2.1305e-16 -0.281733 0.959493
    outer loop
      vertex 12.4011 1.89224 6.05561
      vertex 12.6 0 5.5
      vertex 14.9011 1.89224 6.05561
    endloop
  endfacet
  facet normal -1.45408e-16 -0.755749 0.654861
    outer loop
      vertex 12.3247 2.61969 6.89513
      vertex 12.4011 1.89224 6.05561
      vertex 14.9011 1.89224 6.05561
    endloop
  endfacet
  facet normal -1.45408e-16 -0.755749 0.654861
    outer loop
      vertex 14.7557 3.18371 7.54605
      vertex 12.3247 2.61969 6.89513
      vertex 14.77 3.13947 7.49499
    endloop
  endfacet
  facet normal -1.45408e-16 -0.755749 0.654861
    outer loop
      vertex 14.77 3.13947 7.49499
      vertex 12.3247 2.61969 6.89513
      vertex 14.9011 1.89224 6.05561
    endloop
  endfacet
  facet normal -1.45408e-16 -0.755749 0.654861
    outer loop
      vertex 12.1414 3.18371 7.54605
      vertex 12.3247 2.61969 6.89513
      vertex 14.7557 3.18371 7.54605
    endloop
  endfacet
  facet normal -3.16002e-17 -0.989821 0.142315
    outer loop
      vertex 12.1414 3.18371 7.54605
      vertex 14.7557 3.18371 7.54605
      vertex 14.6645 3.46437 9.4981
    endloop
  endfacet
  facet normal -3.16002e-17 -0.989821 0.142315
    outer loop
      vertex 12.0502 3.46437 9.4981
      vertex 12.1414 3.18371 7.54605
      vertex 14.6645 3.46437 9.4981
    endloop
  endfacet
  facet normal 9.22406e-17 -0.909632 -0.415415
    outer loop
      vertex 14.6645 3.46437 9.4981
      vertex 14.77 3.13947 10.2096
      vertex 14.822 2.64512 11.292
    endloop
  endfacet
  facet normal 9.22406e-17 -0.909632 -0.415415
    outer loop
      vertex 12.0502 3.46437 9.4981
      vertex 14.6645 3.46437 9.4981
      vertex 12.3164 2.64512 11.292
    endloop
  endfacet
  facet normal 9.22406e-17 -0.909632 -0.415415
    outer loop
      vertex 12.3164 2.64512 11.292
      vertex 14.6645 3.46437 9.4981
      vertex 14.822 2.64512 11.292
    endloop
  endfacet
  facet normal 0.994522 0.104528 0
    outer loop
      vertex 14.822 2.64512 11.292
      vertex 14.77 3.13947 10.2096
      vertex 14.77 3.13947 20
    endloop
  endfacet
  facet normal 0.994522 0.104528 0
    outer loop
      vertex 14.9964 0.986064 12.3582
      vertex 14.822 2.64512 11.292
      vertex 15.1 0 20
    endloop
  endfacet
  facet normal 0.994522 0.104528 0
    outer loop
      vertex 15.1 0 20
      vertex 14.822 2.64512 11.292
      vertex 14.77 3.13947 20
    endloop
  endfacet
  facet normal 0.994522 0.104528 0
    outer loop
      vertex 15.1 0 12.3582
      vertex 14.9964 0.986064 12.3582
      vertex 15.1 0 20
    endloop
  endfacet
  facet normal 0 1 0
    outer loop
      vertex -1.57838 15.0173 16.4537
      vertex -1.57838 15.0173 20
      vertex -0.456168 15.0173 17.3486
    endloop
  endfacet
  facet normal 0 1 0
    outer loop
      vertex -0.456168 15.0173 17.3486
      vertex -1.57838 15.0173 20
      vertex 1.57838 15.0173 20
    endloop
  endfacet
  facet normal 0 1 0
    outer loop
      vertex 1.27815 15.0173 16.9528
      vertex 1.57838 15.0173 20
      vertex 1.57838 15.0173 16.3293
    endloop
  endfacet
  facet normal 0 1 0
    outer loop
      vertex -0.456168 15.0173 17.3486
      vertex 1.57838 15.0173 20
      vertex 1.27815 15.0173 16.9528
    endloop
  endfacet
  facet normal -0.900969 -9.63415e-17 -0.433884
    outer loop
      vertex 1.57838 15.0173 16.3293
      vertex 2.05 14.917 15.35
      vertex 1.27815 15.0173 16.9528
    endloop
  endfacet
  facet normal -0.900969 -9.63415e-17 -0.433884
    outer loop
      vertex 1.27815 15.0173 16.9528
      vertex 2.05 14.917 15.35
      vertex 2.05 9.83333 15.35
    endloop
  endfacet
  facet normal -0.900969 -9.63415e-17 -0.433884
    outer loop
      vertex 1.27815 15.0173 16.9528
      vertex 2.05 9.83333 15.35
      vertex 1.27815 9.99739 16.9528
    endloop
  endfacet
  facet normal -0.900969 9.63415e-17 0.433884
    outer loop
      vertex 2.05 14.917 15.35
      vertex 1.57838 15.0173 14.3707
      vertex 2.05 9.83333 15.35
    endloop
  endfacet
  facet normal -0.900969 9.63415e-17 0.433884
    outer loop
      vertex 2.05 9.83333 15.35
      vertex 1.57838 15.0173 14.3707
      vertex 1.27815 15.0173 13.7472
    endloop
  endfacet
  facet normal -0.900969 9.63415e-17 0.433884
    outer loop
      vertex 2.05 9.83333 15.35
      vertex 1.27815 15.0173 13.7472
      vertex 1.27815 9.99739 13.7472
    endloop
  endfacet
  facet normal -0.222521 2.16478e-16 0.974928
    outer loop
      vertex 1.05574 10.0447 13.6965
      vertex 1.27815 9.99739 13.7472
      vertex 1.27815 15.0173 13.7472
    endloop
  endfacet
  facet normal -0.222521 2.16478e-16 0.974928
    outer loop
      vertex -0.456168 10.0447 13.3514
      vertex 1.05574 10.0447 13.6965
      vertex -0.456168 15.0173 13.3514
    endloop
  endfacet
  facet normal -0.222521 2.16478e-16 0.974928
    outer loop
      vertex -0.456168 15.0173 13.3514
      vertex 1.05574 10.0447 13.6965
      vertex 1.27815 15.0173 13.7472
    endloop
  endfacet
  facet normal 0.62349 1.73601e-16 0.781832
    outer loop
      vertex -1.05574 10.0447 13.8295
      vertex -0.456168 10.0447 13.3514
      vertex -0.456168 15.0173 13.3514
    endloop
  endfacet
  facet normal 0.62349 1.73601e-16 0.781832
    outer loop
      vertex -1.84699 14.9602 14.4605
      vertex -1.05574 10.0447 13.8295
      vertex -1.57838 15.0173 14.2463
    endloop
  endfacet
  facet normal 0.62349 1.73601e-16 0.781832
    outer loop
      vertex -1.57838 15.0173 14.2463
      vertex -1.05574 10.0447 13.8295
      vertex -0.456168 15.0173 13.3514
    endloop
  endfacet
  facet normal 0.62349 1.73601e-16 0.781832
    outer loop
      vertex -1.84699 9.87649 14.4605
      vertex -1.05574 10.0447 13.8295
      vertex -1.84699 14.9602 14.4605
    endloop
  endfacet
  facet normal 1 0 0
    outer loop
      vertex -1.84699 14.9602 14.4605
      vertex -1.84699 14.9602 16.2395
      vertex -1.84699 9.87649 16.2395
    endloop
  endfacet
  facet normal 1 0 0
    outer loop
      vertex -1.84699 9.87649 14.4605
      vertex -1.84699 14.9602 14.4605
      vertex -1.84699 9.87649 16.2395
    endloop
  endfacet
  facet normal 0.62349 -1.73601e-16 -0.781832
    outer loop
      vertex -1.57838 15.0173 16.4537
      vertex -0.456168 15.0173 17.3486
      vertex -1.84699 14.9602 16.2395
    endloop
  endfacet
  facet normal 0.62349 -1.73601e-16 -0.781832
    outer loop
      vertex -1.84699 14.9602 16.2395
      vertex -0.456168 15.0173 17.3486
      vertex -0.456168 10.0447 17.3486
    endloop
  endfacet
  facet normal 0.62349 -1.73601e-16 -0.781832
    outer loop
      vertex -1.84699 14.9602 16.2395
      vertex -0.456168 10.0447 17.3486
      vertex -1.05574 10.0447 16.8705
    endloop
  endfacet
  facet normal 0.62349 -1.73601e-16 -0.781832
    outer loop
      vertex -1.84699 14.9602 16.2395
      vertex -1.05574 10.0447 16.8705
      vertex -1.84699 9.87649 16.2395
    endloop
  endfacet
  facet normal 0 -1 0
    outer loop
      vertex -0.456168 10.0447 17.3486
      vertex 1.05574 10.0447 17.0035
      vertex 1.05574 10.0447 20
    endloop
  endfacet
  facet normal 0 -1 0
    outer loop
      vertex -1.05574 10.0447 16.8705
      vertex -0.456168 10.0447 17.3486
      vertex -1.05574 10.0447 20
    endloop
  endfacet
  facet normal 0 -1 0
    outer loop
      vertex -1.05574 10.0447 20
      vertex -0.456168 10.0447 17.3486
      vertex 1.05574 10.0447 20
    endloop
  endfacet
  facet normal -0.222521 -2.16478e-16 -0.974928
    outer loop
      vertex 1.27815 15.0173 16.9528
      vertex 1.27815 9.99739 16.9528
      vertex -0.456168 15.0173 17.3486
    endloop
  endfacet
  facet normal -0.222521 -2.16478e-16 -0.974928
    outer loop
      vertex -0.456168 15.0173 17.3486
      vertex 1.27815 9.99739 16.9528
      vertex 1.05574 10.0447 17.0035
    endloop
  endfacet
  facet normal -0.222521 -2.16478e-16 -0.974928
    outer loop
      vertex -0.456168 15.0173 17.3486
      vertex 1.05574 10.0447 17.0035
      vertex -0.456168 10.0447 17.3486
    endloop
  endfacet
  facet normal -0.994522 -0.104528 0
    outer loop
      vertex 12.6 0 12.3582
      vertex 12.6 0 20
      vertex 12.4964 0.986064 12.3582
    endloop
  endfacet
  facet normal -0.994522 -0.104528 0
    outer loop
      vertex 12.4964 0.986064 12.3582
      vertex 12.6 0 20
      vertex 12.3247 2.61969 20
    endloop
  endfacet
  facet normal -0.994522 -0.104528 0
    outer loop
      vertex 12.4964 0.986064 12.3582
      vertex 12.3247 2.61969 20
      vertex 12.3247 2.61969 11.3084
    endloop
  endfacet
  facet normal 1.86796e-16 -0.54064 -0.841254
    outer loop
      vertex 14.9964 0.986064 12.3582
      vertex 12.4964 0.986064 12.3582
      vertex 14.822 2.64512 11.292
    endloop
  endfacet
  facet normal 1.86796e-16 -0.54064 -0.841254
    outer loop
      vertex 14.822 2.64512 11.292
      vertex 12.4964 0.986064 12.3582
      vertex 12.3247 2.61969 11.3084
    endloop
  endfacet
  facet normal 1.86796e-16 -0.54064 -0.841254
    outer loop
      vertex 14.822 2.64512 11.292
      vertex 12.3247 2.61969 11.3084
      vertex 12.3164 2.64512 11.292
    endloop
  endfacet
  facet normal 1.86796e-16 0.54064 -0.841254
    outer loop
      vertex 12.4964 -0.986064 12.3582
      vertex 14.9964 -0.986064 12.3582
      vertex 12.3247 -2.61969 11.3084
    endloop
  endfacet
  facet normal 1.86796e-16 0.54064 -0.841254
    outer loop
      vertex 12.3247 -2.61969 11.3084
      vertex 14.9964 -0.986064 12.3582
      vertex 14.822 -2.64512 11.292
    endloop
  endfacet
  facet normal 1.86796e-16 0.54064 -0.841254
    outer loop
      vertex 12.3247 -2.61969 11.3084
      vertex 14.822 -2.64512 11.292
      vertex 12.3164 -2.64512 11.292
    endloop
  endfacet
  facet normal -0.994522 0.104528 0
    outer loop
      vertex 12.6 0 20
      vertex 12.6 0 12.3582
      vertex 12.3247 -2.61969 20
    endloop
  endfacet
  facet normal -0.994522 0.104528 0
    outer loop
      vertex 12.3247 -2.61969 20
      vertex 12.6 0 12.3582
      vertex 12.4964 -0.986064 12.3582
    endloop
  endfacet
  facet normal -0.994522 0.104528 0
    outer loop
      vertex 12.3247 -2.61969 20
      vertex 12.4964 -0.986064 12.3582
      vertex 12.3247 -2.61969 11.3084
    endloop
  endfacet
  facet normal 0 1 0
    outer loop
      vertex 1.05574 -10.0447 20
      vertex 1.05574 -10.0447 17.0035
      vertex -1.05574 -10.0447 20
    endloop
  endfacet
  facet normal 0 1 0
    outer loop
      vertex -1.05574 -10.0447 20
      vertex 1.05574 -10.0447 17.0035
      vertex -0.456168 -10.0447 17.3486
    endloop
  endfacet
  facet normal 0 1 0
    outer loop
      vertex -1.05574 -10.0447 20
      vertex -0.456168 -10.0447 17.3486
      vertex -1.05574 -10.0447 16.8705
    endloop
  endfacet
  facet normal -0.222521 -2.16478e-16 -0.974928
    outer loop
      vertex 1.05574 -10.0447 17.0035
      vertex 1.27815 -9.99739 16.9528
      vertex 1.27815 -15.0173 16.9528
    endloop
  endfacet
  facet normal -0.222521 -2.16478e-16 -0.974928
    outer loop
      vertex 1.05574 -10.0447 17.0035
      vertex 1.27815 -15.0173 16.9528
      vertex -0.456168 -10.0447 17.3486
    endloop
  endfacet
  facet normal -0.222521 -2.16478e-16 -0.974928
    outer loop
      vertex 1.27815 -15.0173 16.9528
      vertex -0.456168 -15.0173 17.3486
      vertex -0.456168 -10.0447 17.3486
    endloop
  endfacet
  facet normal 2.22045e-16 0 -1
    outer loop
      vertex 12.4964 0.986064 12.3582
      vertex 14.9964 0.986064 12.3582
      vertex 12.6 0 12.3582
    endloop
  endfacet
  facet normal 2.22045e-16 0 -1
    outer loop
      vertex 12.6 0 12.3582
      vertex 14.9964 0.986064 12.3582
      vertex 15.1 0 12.3582
    endloop
  endfacet
  facet normal 2.22045e-16 0 -1
    outer loop
      vertex 12.6 0 12.3582
      vertex 15.1 0 12.3582
      vertex 14.9964 -0.986064 12.3582
    endloop
  endfacet
  facet normal 2.22045e-16 0 -1
    outer loop
      vertex 12.6 0 12.3582
      vertex 14.9964 -0.986064 12.3582
      vertex 12.4964 -0.986064 12.3582
    endloop
  endfacet
endsolid OpenSCAD_Model
