solid OpenSCAD_Model
  facet normal -1 0 -2.22045e-16
    outer loop
      vertex 15.6 0 11
      vertex 15.6 0.498102 10.9644
      vertex 15.6 -0.498102 10.9644
    endloop
  endfacet
  facet normal -1 0 -2.22045e-16
    outer loop
      vertex 15.6 -0.498102 10.9644
      vertex 15.6 0.498102 10.9644
      vertex 15.6 0.986064 10.8582
    endloop
  endfacet
  facet normal -1 0 -2.22045e-16
    outer loop
      vertex 15.6 -0.498102 10.9644
      vertex 15.6 0.986064 10.8582
      vertex 15.6 1.45395 10.6837
    endloop
  endfacet
  facet normal -1 0 -2.22045e-16
    outer loop
      vertex 15.6 -0.498102 10.9644
      vertex 15.6 1.45395 10.6837
      vertex 15.6 1.89224 10.4444
    endloop
  endfacet
  facet normal -1 0 -2.22045e-16
    outer loop
      vertex 15.6 -0.498102 10.9644
      vertex 15.6 1.89224 10.4444
      vertex 15.6 2.29201 10.1451
    endloop
  endfacet
  facet normal -1 0 -2.22045e-16
    outer loop
      vertex 15.6 -0.498102 10.9644
      vertex 15.6 2.29201 10.1451
      vertex 15.6 2.64512 9.79201
    endloop
  endfacet
  facet normal -1 0 -2.22045e-16
    outer loop
      vertex 15.6 -0.498102 10.9644
      vertex 15.6 2.64512 9.79201
      vertex 15.6 2.94439 9.39224
    endloop
  endfacet
  facet normal -1 0 -2.22045e-16
    outer loop
      vertex 15.6 -0.498102 10.9644
      vertex 15.6 2.94439 9.39224
      vertex 15.6 3.18371 8.95395
    endloop
  endfacet
  facet normal -1 0 -2.22045e-16
    outer loop
      vertex 15.6 -0.498102 10.9644
      vertex 15.6 3.18371 8.95395
      vertex 15.6 3.35823 8.48606
    endloop
  endfacet
  facet normal -1 0 -2.22045e-16
    outer loop
      vertex 15.6 -0.498102 10.9644
      vertex 15.6 3.35823 8.48606
      vertex 15.6 3.46437 7.9981
    endloop
  endfacet
  facet normal -1 0 -2.22045e-16
    outer loop
      vertex 15.6 -0.498102 10.9644
      vertex 15.6 3.46437 7.9981
      vertex 15.6 3.5 7.5
    endloop
  endfacet
  facet normal -1 0 -2.22045e-16
    outer loop
      vertex 15.6 0.5 10
      vertex 15.6 3.5 7.5
      vertex 15.6 3.46437 7.0019
    endloop
  endfacet
  facet normal -1 0 -2.22045e-16
    outer loop
      vertex 15.6 0.5 5
      vertex 15.6 0.986064 4.14177
      vertex 15.6 0.498102 4.03562
    endloop
  endfacet
  facet normal -1 0 -2.22045e-16
    outer loop
      vertex 15.6 0.5 5
      vertex 15.6 -0.498102 4.03562
      vertex 15.6 -0.5 5
    endloop
  endfacet
  facet normal -1 0 -2.22045e-16
    outer loop
      vertex 15.6 0.5 5
      vertex 15.6 0 4
      vertex 15.6 -0.498102 4.03562
    endloop
  endfacet
  facet normal -1 0 -2.22045e-16
    outer loop
      vertex 15.6 -0.5 5
      vertex 15.6 -0.498102 4.03562
      vertex 15.6 -0.986064 4.14177
    endloop
  endfacet
  facet normal -1 0 -2.22045e-16
    outer loop
      vertex 15.6 -0.498102 10.9644
      vertex 15.6 -0.986064 4.14177
      vertex 15.6 -1.45395 4.31629
    endloop
  endfacet
  facet normal -1 0 -2.22045e-16
    outer loop
      vertex 15.6 -0.498102 10.9644
      vertex 15.6 -1.45395 4.31629
      vertex 15.6 -1.89224 4.55561
    endloop
  endfacet
  facet normal -1 0 -2.22045e-16
    outer loop
      vertex 15.6 -0.498102 10.9644
      vertex 15.6 -1.89224 4.55561
      vertex 15.6 -2.29201 4.85488
    endloop
  endfacet
  facet normal -1 0 -2.22045e-16
    outer loop
      vertex 15.6 -0.498102 10.9644
      vertex 15.6 -2.29201 4.85488
      vertex 15.6 -2.64512 5.20799
    endloop
  endfacet
  facet normal -1 0 -2.22045e-16
    outer loop
      vertex 15.6 -0.498102 10.9644
      vertex 15.6 -2.64512 5.20799
      vertex 15.6 -2.94439 5.60776
    endloop
  endfacet
  facet normal -1 0 -2.22045e-16
    outer loop
      vertex 15.6 -0.498102 10.9644
      vertex 15.6 -2.94439 5.60776
      vertex 15.6 -3.18371 6.04605
    endloop
  endfacet
  facet normal -1 0 -2.22045e-16
    outer loop
      vertex 15.6 -0.498102 10.9644
      vertex 15.6 -3.18371 6.04605
      vertex 15.6 -3.35823 6.51394
    endloop
  endfacet
  facet normal -1 0 -2.22045e-16
    outer loop
      vertex 15.6 -0.498102 10.9644
      vertex 15.6 -3.35823 6.51394
      vertex 15.6 -3.46437 7.0019
    endloop
  endfacet
  facet normal -1 0 -2.22045e-16
    outer loop
      vertex 15.6 -0.498102 10.9644
      vertex 15.6 -3.46437 7.0019
      vertex 15.6 -3.5 7.5
    endloop
  endfacet
  facet normal -1 0 -2.22045e-16
    outer loop
      vertex 15.6 -0.498102 10.9644
      vertex 15.6 -3.5 7.5
      vertex 15.6 -3.46437 7.9981
    endloop
  endfacet
  facet normal -1 0 -2.22045e-16
    outer loop
      vertex 15.6 -0.498102 10.9644
      vertex 15.6 -3.46437 7.9981
      vertex 15.6 -3.35823 8.48606
    endloop
  endfacet
  facet normal -1 0 -2.22045e-16
    outer loop
      vertex 15.6 -0.498102 10.9644
      vertex 15.6 -3.35823 8.48606
      vertex 15.6 -3.18371 8.95395
    endloop
  endfacet
  facet normal -1 0 -2.22045e-16
    outer loop
      vertex 15.6 -0.498102 10.9644
      vertex 15.6 -3.18371 8.95395
      vertex 15.6 -2.94439 9.39224
    endloop
  endfacet
  facet normal -1 0 -2.22045e-16
    outer loop
      vertex 15.6 -0.498102 10.9644
      vertex 15.6 -2.94439 9.39224
      vertex 15.6 -2.64512 9.79201
    endloop
  endfacet
  facet normal -1 0 -2.22045e-16
    outer loop
      vertex 15.6 -0.498102 10.9644
      vertex 15.6 -2.64512 9.79201
      vertex 15.6 -2.29201 10.1451
    endloop
  endfacet
  facet normal -1 0 -2.22045e-16
    outer loop
      vertex 15.6 -0.498102 10.9644
      vertex 15.6 -2.29201 10.1451
      vertex 15.6 -1.89224 10.4444
    endloop
  endfacet
  facet normal -1 0 -2.22045e-16
    outer loop
      vertex 15.6 -0.498102 10.9644
      vertex 15.6 -1.89224 10.4444
      vertex 15.6 -1.45395 10.6837
    endloop
  endfacet
  facet normal -1 0 -2.22045e-16
    outer loop
      vertex 15.6 -0.498102 10.9644
      vertex 15.6 -1.45395 10.6837
      vertex 15.6 -0.986064 10.8582
    endloop
  endfacet
  facet normal -1 0 -2.22045e-16
    outer loop
      vertex 15.6 -0.498102 10.9644
      vertex 15.6 3.5 7.5
      vertex 15.6 0.5 10
    endloop
  endfacet
  facet normal -1 0 -2.22045e-16
    outer loop
      vertex 15.6 -0.5 10
      vertex 15.6 -0.498102 10.9644
      vertex 15.6 0.5 10
    endloop
  endfacet
  facet normal -1 0 -2.22045e-16
    outer loop
      vertex 15.6 0.5 5
      vertex 15.6 0.498102 4.03562
      vertex 15.6 0 4
    endloop
  endfacet
  facet normal -1 0 -2.22045e-16
    outer loop
      vertex 15.6 -0.498102 10.9644
      vertex 15.6 -0.5 10
      vertex 15.6 -0.986064 4.14177
    endloop
  endfacet
  facet normal -1 0 -2.22045e-16
    outer loop
      vertex 15.6 -0.5 10
      vertex 15.6 -0.5 5
      vertex 15.6 -0.986064 4.14177
    endloop
  endfacet
  facet normal -1 0 -2.22045e-16
    outer loop
      vertex 15.6 0.5 10
      vertex 15.6 3.46437 7.0019
      vertex 15.6 3.35823 6.51394
    endloop
  endfacet
  facet normal -1 0 -2.22045e-16
    outer loop
      vertex 15.6 0.5 10
      vertex 15.6 3.35823 6.51394
      vertex 15.6 3.18371 6.04605
    endloop
  endfacet
  facet normal -1 0 -2.22045e-16
    outer loop
      vertex 15.6 0.5 10
      vertex 15.6 3.18371 6.04605
      vertex 15.6 2.94439 5.60776
    endloop
  endfacet
  facet normal -1 0 -2.22045e-16
    outer loop
      vertex 15.6 0.5 10
      vertex 15.6 2.94439 5.60776
      vertex 15.6 2.64512 5.20799
    endloop
  endfacet
  facet normal -1 0 -2.22045e-16
    outer loop
      vertex 15.6 0.5 10
      vertex 15.6 2.64512 5.20799
      vertex 15.6 2.29201 4.85488
    endloop
  endfacet
  facet normal -1 0 -2.22045e-16
    outer loop
      vertex 15.6 0.5 10
      vertex 15.6 2.29201 4.85488
      vertex 15.6 1.89224 4.55561
    endloop
  endfacet
  facet normal -1 0 -2.22045e-16
    outer loop
      vertex 15.6 0.5 10
      vertex 15.6 1.89224 4.55561
      vertex 15.6 1.45395 4.31629
    endloop
  endfacet
  facet normal -1 0 -2.22045e-16
    outer loop
      vertex 15.6 0.5 10
      vertex 15.6 1.45395 4.31629
      vertex 15.6 0.986064 4.14177
    endloop
  endfacet
  facet normal -1 0 -2.22045e-16
    outer loop
      vertex 15.6 0.5 10
      vertex 15.6 0.986064 4.14177
      vertex 15.6 0.5 5
    endloop
  endfacet
  facet normal -2.21479e-16 0.0713393 0.997452
    outer loop
      vertex 15.6 0.498102 10.9644
      vertex 15.6 0 11
      vertex 18.4 0 11
    endloop
  endfacet
  facet normal -2.21479e-16 0.0713393 0.997452
    outer loop
      vertex 18.4 0.498102 10.9644
      vertex 15.6 0.498102 10.9644
      vertex 18.4 0 11
    endloop
  endfacet
  facet normal -2.21479e-16 -0.0713393 0.997452
    outer loop
      vertex 18.4 0 11
      vertex 15.6 0 11
      vertex 15.6 -0.498102 10.9644
    endloop
  endfacet
  facet normal -2.21479e-16 -0.0713393 0.997452
    outer loop
      vertex 18.4 -0.498102 10.9644
      vertex 18.4 0 11
      vertex 15.6 -0.498102 10.9644
    endloop
  endfacet
  facet normal -2.1697e-16 -0.212566 0.977147
    outer loop
      vertex 18.4 -0.498102 10.9644
      vertex 15.6 -0.498102 10.9644
      vertex 15.6 -0.986064 10.8582
    endloop
  endfacet
  facet normal -2.1697e-16 -0.212566 0.977147
    outer loop
      vertex 18.4 -0.986064 10.8582
      vertex 18.4 -0.498102 10.9644
      vertex 15.6 -0.986064 10.8582
    endloop
  endfacet
  facet normal -2.08045e-16 -0.349463 0.93695
    outer loop
      vertex 18.4 -0.986064 10.8582
      vertex 15.6 -0.986064 10.8582
      vertex 15.6 -1.45395 10.6837
    endloop
  endfacet
  facet normal -2.08045e-16 -0.349463 0.93695
    outer loop
      vertex 18.4 -1.45395 10.6837
      vertex 18.4 -0.986064 10.8582
      vertex 15.6 -1.45395 10.6837
    endloop
  endfacet
  facet normal -1.94884e-16 -0.47925 0.877679
    outer loop
      vertex 18.4 -1.45395 10.6837
      vertex 15.6 -1.45395 10.6837
      vertex 15.6 -1.89224 10.4444
    endloop
  endfacet
  facet normal -1.94884e-16 -0.47925 0.877679
    outer loop
      vertex 18.4 -1.89224 10.4444
      vertex 18.4 -1.45395 10.6837
      vertex 15.6 -1.89224 10.4444
    endloop
  endfacet
  facet normal -1.77756e-16 -0.599276 0.800542
    outer loop
      vertex 18.4 -1.89224 10.4444
      vertex 15.6 -1.89224 10.4444
      vertex 15.6 -2.29201 10.1451
    endloop
  endfacet
  facet normal -1.77756e-16 -0.599276 0.800542
    outer loop
      vertex 18.4 -2.29201 10.1451
      vertex 18.4 -1.89224 10.4444
      vertex 15.6 -2.29201 10.1451
    endloop
  endfacet
  facet normal -1.57009e-16 -0.707107 0.707107
    outer loop
      vertex 18.4 -2.29201 10.1451
      vertex 15.6 -2.29201 10.1451
      vertex 15.6 -2.64512 9.79201
    endloop
  endfacet
  facet normal -1.57009e-16 -0.707107 0.707107
    outer loop
      vertex 18.4 -2.64512 9.79201
      vertex 18.4 -2.29201 10.1451
      vertex 15.6 -2.64512 9.79201
    endloop
  endfacet
  facet normal -1.33066e-16 -0.800542 0.599276
    outer loop
      vertex 18.4 -2.64512 9.79201
      vertex 15.6 -2.64512 9.79201
      vertex 15.6 -2.94439 9.39224
    endloop
  endfacet
  facet normal -1.33066e-16 -0.800542 0.599276
    outer loop
      vertex 18.4 -2.94439 9.39224
      vertex 18.4 -2.64512 9.79201
      vertex 15.6 -2.94439 9.39224
    endloop
  endfacet
  facet normal -1.06415e-16 -0.877679 0.47925
    outer loop
      vertex 18.4 -2.94439 9.39224
      vertex 15.6 -2.94439 9.39224
      vertex 15.6 -3.18371 8.95395
    endloop
  endfacet
  facet normal -1.06415e-16 -0.877679 0.47925
    outer loop
      vertex 18.4 -3.18371 8.95395
      vertex 18.4 -2.94439 9.39224
      vertex 15.6 -3.18371 8.95395
    endloop
  endfacet
  facet normal -7.75964e-17 -0.93695 0.349463
    outer loop
      vertex 18.4 -3.18371 8.95395
      vertex 15.6 -3.18371 8.95395
      vertex 15.6 -3.35823 8.48606
    endloop
  endfacet
  facet normal -7.75964e-17 -0.93695 0.349463
    outer loop
      vertex 18.4 -3.35823 8.48606
      vertex 18.4 -3.18371 8.95395
      vertex 15.6 -3.35823 8.48606
    endloop
  endfacet
  facet normal -4.71991e-17 -0.977147 0.212566
    outer loop
      vertex 18.4 -3.35823 8.48606
      vertex 15.6 -3.35823 8.48606
      vertex 15.6 -3.46437 7.9981
    endloop
  endfacet
  facet normal -4.71991e-17 -0.977147 0.212566
    outer loop
      vertex 18.4 -3.46437 7.9981
      vertex 18.4 -3.35823 8.48606
      vertex 15.6 -3.46437 7.9981
    endloop
  endfacet
  facet normal -1.58405e-17 -0.997452 0.0713393
    outer loop
      vertex 18.4 -3.46437 7.9981
      vertex 15.6 -3.46437 7.9981
      vertex 15.6 -3.5 7.5
    endloop
  endfacet
  facet normal -1.58405e-17 -0.997452 0.0713393
    outer loop
      vertex 18.4 -3.5 7.5
      vertex 18.4 -3.46437 7.9981
      vertex 15.6 -3.5 7.5
    endloop
  endfacet
  facet normal 1.58405e-17 -0.997452 -0.0713393
    outer loop
      vertex 18.4 -3.5 7.5
      vertex 15.6 -3.5 7.5
      vertex 15.6 -3.46437 7.0019
    endloop
  endfacet
  facet normal 1.58405e-17 -0.997452 -0.0713393
    outer loop
      vertex 18.4 -3.46437 7.0019
      vertex 18.4 -3.5 7.5
      vertex 15.6 -3.46437 7.0019
    endloop
  endfacet
  facet normal 4.71991e-17 -0.977147 -0.212566
    outer loop
      vertex 18.4 -3.46437 7.0019
      vertex 15.6 -3.46437 7.0019
      vertex 15.6 -3.35823 6.51394
    endloop
  endfacet
  facet normal 4.71991e-17 -0.977147 -0.212566
    outer loop
      vertex 18.4 -3.35823 6.51394
      vertex 18.4 -3.46437 7.0019
      vertex 15.6 -3.35823 6.51394
    endloop
  endfacet
  facet normal 7.75964e-17 -0.93695 -0.349463
    outer loop
      vertex 18.4 -3.35823 6.51394
      vertex 15.6 -3.35823 6.51394
      vertex 15.6 -3.18371 6.04605
    endloop
  endfacet
  facet normal 7.75964e-17 -0.93695 -0.349463
    outer loop
      vertex 18.4 -3.18371 6.04605
      vertex 18.4 -3.35823 6.51394
      vertex 15.6 -3.18371 6.04605
    endloop
  endfacet
  facet normal 1.06415e-16 -0.877679 -0.47925
    outer loop
      vertex 18.4 -3.18371 6.04605
      vertex 15.6 -3.18371 6.04605
      vertex 15.6 -2.94439 5.60776
    endloop
  endfacet
  facet normal 1.06415e-16 -0.877679 -0.47925
    outer loop
      vertex 18.4 -2.94439 5.60776
      vertex 18.4 -3.18371 6.04605
      vertex 15.6 -2.94439 5.60776
    endloop
  endfacet
  facet normal 1.33066e-16 -0.800542 -0.599276
    outer loop
      vertex 18.4 -2.94439 5.60776
      vertex 15.6 -2.94439 5.60776
      vertex 15.6 -2.64512 5.20799
    endloop
  endfacet
  facet normal 1.33066e-16 -0.800542 -0.599276
    outer loop
      vertex 18.4 -2.64512 5.20799
      vertex 18.4 -2.94439 5.60776
      vertex 15.6 -2.64512 5.20799
    endloop
  endfacet
  facet normal 1.57009e-16 -0.707107 -0.707107
    outer loop
      vertex 18.4 -2.64512 5.20799
      vertex 15.6 -2.64512 5.20799
      vertex 15.6 -2.29201 4.85488
    endloop
  endfacet
  facet normal 1.57009e-16 -0.707107 -0.707107
    outer loop
      vertex 18.4 -2.29201 4.85488
      vertex 18.4 -2.64512 5.20799
      vertex 15.6 -2.29201 4.85488
    endloop
  endfacet
  facet normal 1.77756e-16 -0.599276 -0.800542
    outer loop
      vertex 15.6 -2.29201 4.85488
      vertex 15.6 -1.89224 4.55561
      vertex 18.4 -2.29201 4.85488
    endloop
  endfacet
  facet normal 1.77756e-16 -0.599276 -0.800542
    outer loop
      vertex 18.4 -2.29201 4.85488
      vertex 15.6 -1.89224 4.55561
      vertex 18.4 -1.89224 4.55561
    endloop
  endfacet
  facet normal 1.94884e-16 -0.47925 -0.877679
    outer loop
      vertex 15.6 -1.89224 4.55561
      vertex 15.6 -1.45395 4.31629
      vertex 18.4 -1.89224 4.55561
    endloop
  endfacet
  facet normal 1.94884e-16 -0.47925 -0.877679
    outer loop
      vertex 18.4 -1.89224 4.55561
      vertex 15.6 -1.45395 4.31629
      vertex 18.4 -1.45395 4.31629
    endloop
  endfacet
  facet normal 2.08045e-16 -0.349463 -0.93695
    outer loop
      vertex 15.6 -1.45395 4.31629
      vertex 15.6 -0.986064 4.14177
      vertex 18.4 -1.45395 4.31629
    endloop
  endfacet
  facet normal 2.08045e-16 -0.349463 -0.93695
    outer loop
      vertex 18.4 -1.45395 4.31629
      vertex 15.6 -0.986064 4.14177
      vertex 18.4 -0.986064 4.14177
    endloop
  endfacet
  facet normal 2.1697e-16 -0.212566 -0.977147
    outer loop
      vertex 15.6 -0.986064 4.14177
      vertex 15.6 -0.498102 4.03562
      vertex 18.4 -0.986064 4.14177
    endloop
  endfacet
  facet normal 2.1697e-16 -0.212566 -0.977147
    outer loop
      vertex 18.4 -0.986064 4.14177
      vertex 15.6 -0.498102 4.03562
      vertex 18.4 -0.498102 4.03563
    endloop
  endfacet
  facet normal 2.21479e-16 -0.0713393 -0.997452
    outer loop
      vertex 15.6 -0.498102 4.03562
      vertex 15.6 0 4
      vertex 18.4 -0.498102 4.03563
    endloop
  endfacet
  facet normal 2.21479e-16 -0.0713393 -0.997452
    outer loop
      vertex 18.4 -0.498102 4.03563
      vertex 15.6 0 4
      vertex 18.4 0 4
    endloop
  endfacet
  facet normal 2.21479e-16 0.0713393 -0.997452
    outer loop
      vertex 15.6 0.498102 4.03562
      vertex 18.4 0.498102 4.03563
      vertex 15.6 0 4
    endloop
  endfacet
  facet normal 2.21479e-16 0.0713393 -0.997452
    outer loop
      vertex 15.6 0 4
      vertex 18.4 0.498102 4.03563
      vertex 18.4 0 4
    endloop
  endfacet
  facet normal 2.1697e-16 0.212566 -0.977147
    outer loop
      vertex 15.6 0.986064 4.14177
      vertex 18.4 0.986064 4.14177
      vertex 15.6 0.498102 4.03562
    endloop
  endfacet
  facet normal 2.1697e-16 0.212566 -0.977147
    outer loop
      vertex 15.6 0.498102 4.03562
      vertex 18.4 0.986064 4.14177
      vertex 18.4 0.498102 4.03563
    endloop
  endfacet
  facet normal 2.08045e-16 0.349463 -0.93695
    outer loop
      vertex 15.6 1.45395 4.31629
      vertex 18.4 1.45395 4.31629
      vertex 15.6 0.986064 4.14177
    endloop
  endfacet
  facet normal 2.08045e-16 0.349463 -0.93695
    outer loop
      vertex 15.6 0.986064 4.14177
      vertex 18.4 1.45395 4.31629
      vertex 18.4 0.986064 4.14177
    endloop
  endfacet
  facet normal 1.94884e-16 0.47925 -0.877679
    outer loop
      vertex 15.6 1.89224 4.55561
      vertex 18.4 1.89224 4.55561
      vertex 15.6 1.45395 4.31629
    endloop
  endfacet
  facet normal 1.94884e-16 0.47925 -0.877679
    outer loop
      vertex 15.6 1.45395 4.31629
      vertex 18.4 1.89224 4.55561
      vertex 18.4 1.45395 4.31629
    endloop
  endfacet
  facet normal 1.77756e-16 0.599276 -0.800542
    outer loop
      vertex 15.6 2.29201 4.85488
      vertex 18.4 2.29201 4.85488
      vertex 15.6 1.89224 4.55561
    endloop
  endfacet
  facet normal 1.77756e-16 0.599276 -0.800542
    outer loop
      vertex 15.6 1.89224 4.55561
      vertex 18.4 2.29201 4.85488
      vertex 18.4 1.89224 4.55561
    endloop
  endfacet
  facet normal 1.57009e-16 0.707107 -0.707107
    outer loop
      vertex 15.6 2.64512 5.20799
      vertex 18.4 2.64512 5.20799
      vertex 15.6 2.29201 4.85488
    endloop
  endfacet
  facet normal 1.57009e-16 0.707107 -0.707107
    outer loop
      vertex 15.6 2.29201 4.85488
      vertex 18.4 2.64512 5.20799
      vertex 18.4 2.29201 4.85488
    endloop
  endfacet
  facet normal 1.33066e-16 0.800542 -0.599276
    outer loop
      vertex 15.6 2.94439 5.60776
      vertex 18.4 2.94439 5.60776
      vertex 15.6 2.64512 5.20799
    endloop
  endfacet
  facet normal 1.33066e-16 0.800542 -0.599276
    outer loop
      vertex 15.6 2.64512 5.20799
      vertex 18.4 2.94439 5.60776
      vertex 18.4 2.64512 5.20799
    endloop
  endfacet
  facet normal 1.06415e-16 0.877679 -0.47925
    outer loop
      vertex 15.6 3.18371 6.04605
      vertex 18.4 3.18371 6.04605
      vertex 15.6 2.94439 5.60776
    endloop
  endfacet
  facet normal 1.06415e-16 0.877679 -0.47925
    outer loop
      vertex 15.6 2.94439 5.60776
      vertex 18.4 3.18371 6.04605
      vertex 18.4 2.94439 5.60776
    endloop
  endfacet
  facet normal 7.75964e-17 0.93695 -0.349463
    outer loop
      vertex 15.6 3.35823 6.51394
      vertex 18.4 3.35823 6.51394
      vertex 15.6 3.18371 6.04605
    endloop
  endfacet
  facet normal 7.75964e-17 0.93695 -0.349463
    outer loop
      vertex 15.6 3.18371 6.04605
      vertex 18.4 3.35823 6.51394
      vertex 18.4 3.18371 6.04605
    endloop
  endfacet
  facet normal 4.71991e-17 0.977147 -0.212566
    outer loop
      vertex 15.6 3.46437 7.0019
      vertex 18.4 3.46437 7.0019
      vertex 15.6 3.35823 6.51394
    endloop
  endfacet
  facet normal 4.71991e-17 0.977147 -0.212566
    outer loop
      vertex 15.6 3.35823 6.51394
      vertex 18.4 3.46437 7.0019
      vertex 18.4 3.35823 6.51394
    endloop
  endfacet
  facet normal 1.58405e-17 0.997452 -0.0713393
    outer loop
      vertex 15.6 3.5 7.5
      vertex 18.4 3.5 7.5
      vertex 15.6 3.46437 7.0019
    endloop
  endfacet
  facet normal 1.58405e-17 0.997452 -0.0713393
    outer loop
      vertex 15.6 3.46437 7.0019
      vertex 18.4 3.5 7.5
      vertex 18.4 3.46437 7.0019
    endloop
  endfacet
  facet normal -1.58405e-17 0.997452 0.0713393
    outer loop
      vertex 15.6 3.46437 7.9981
      vertex 18.4 3.46437 7.9981
      vertex 15.6 3.5 7.5
    endloop
  endfacet
  facet normal -1.58405e-17 0.997452 0.0713393
    outer loop
      vertex 15.6 3.5 7.5
      vertex 18.4 3.46437 7.9981
      vertex 18.4 3.5 7.5
    endloop
  endfacet
  facet normal -4.71991e-17 0.977147 0.212566
    outer loop
      vertex 15.6 3.35823 8.48606
      vertex 18.4 3.35823 8.48606
      vertex 15.6 3.46437 7.9981
    endloop
  endfacet
  facet normal -4.71991e-17 0.977147 0.212566
    outer loop
      vertex 15.6 3.46437 7.9981
      vertex 18.4 3.35823 8.48606
      vertex 18.4 3.46437 7.9981
    endloop
  endfacet
  facet normal -7.75964e-17 0.93695 0.349463
    outer loop
      vertex 15.6 3.18371 8.95395
      vertex 18.4 3.18371 8.95395
      vertex 15.6 3.35823 8.48606
    endloop
  endfacet
  facet normal -7.75964e-17 0.93695 0.349463
    outer loop
      vertex 15.6 3.35823 8.48606
      vertex 18.4 3.18371 8.95395
      vertex 18.4 3.35823 8.48606
    endloop
  endfacet
  facet normal -1.06415e-16 0.877679 0.47925
    outer loop
      vertex 15.6 2.94439 9.39224
      vertex 18.4 2.94439 9.39224
      vertex 15.6 3.18371 8.95395
    endloop
  endfacet
  facet normal -1.06415e-16 0.877679 0.47925
    outer loop
      vertex 15.6 3.18371 8.95395
      vertex 18.4 2.94439 9.39224
      vertex 18.4 3.18371 8.95395
    endloop
  endfacet
  facet normal -1.33066e-16 0.800542 0.599276
    outer loop
      vertex 15.6 2.64512 9.79201
      vertex 18.4 2.64512 9.79201
      vertex 15.6 2.94439 9.39224
    endloop
  endfacet
  facet normal -1.33066e-16 0.800542 0.599276
    outer loop
      vertex 15.6 2.94439 9.39224
      vertex 18.4 2.64512 9.79201
      vertex 18.4 2.94439 9.39224
    endloop
  endfacet
  facet normal -1.57009e-16 0.707107 0.707107
    outer loop
      vertex 15.6 2.29201 10.1451
      vertex 18.4 2.29201 10.1451
      vertex 15.6 2.64512 9.79201
    endloop
  endfacet
  facet normal -1.57009e-16 0.707107 0.707107
    outer loop
      vertex 15.6 2.64512 9.79201
      vertex 18.4 2.29201 10.1451
      vertex 18.4 2.64512 9.79201
    endloop
  endfacet
  facet normal -1.77756e-16 0.599276 0.800542
    outer loop
      vertex 15.6 2.29201 10.1451
      vertex 15.6 1.89224 10.4444
      vertex 18.4 1.89224 10.4444
    endloop
  endfacet
  facet normal -1.77756e-16 0.599276 0.800542
    outer loop
      vertex 18.4 2.29201 10.1451
      vertex 15.6 2.29201 10.1451
      vertex 18.4 1.89224 10.4444
    endloop
  endfacet
  facet normal -1.94884e-16 0.47925 0.877679
    outer loop
      vertex 15.6 1.89224 10.4444
      vertex 15.6 1.45395 10.6837
      vertex 18.4 1.45395 10.6837
    endloop
  endfacet
  facet normal -1.94884e-16 0.47925 0.877679
    outer loop
      vertex 18.4 1.89224 10.4444
      vertex 15.6 1.89224 10.4444
      vertex 18.4 1.45395 10.6837
    endloop
  endfacet
  facet normal -2.08045e-16 0.349463 0.93695
    outer loop
      vertex 15.6 1.45395 10.6837
      vertex 15.6 0.986064 10.8582
      vertex 18.4 0.986064 10.8582
    endloop
  endfacet
  facet normal -2.08045e-16 0.349463 0.93695
    outer loop
      vertex 18.4 1.45395 10.6837
      vertex 15.6 1.45395 10.6837
      vertex 18.4 0.986064 10.8582
    endloop
  endfacet
  facet normal -2.1697e-16 0.212566 0.977147
    outer loop
      vertex 15.6 0.986064 10.8582
      vertex 15.6 0.498102 10.9644
      vertex 18.4 0.498102 10.9644
    endloop
  endfacet
  facet normal -2.1697e-16 0.212566 0.977147
    outer loop
      vertex 18.4 0.986064 10.8582
      vertex 15.6 0.986064 10.8582
      vertex 18.4 0.498102 10.9644
    endloop
  endfacet
  facet normal 0 -1 0
    outer loop
      vertex 15.6 0.5 5
      vertex 16.4 0.5 5
      vertex 16.4 0.5 10
    endloop
  endfacet
  facet normal 0 -1 0
    outer loop
      vertex 15.6 0.5 10
      vertex 15.6 0.5 5
      vertex 16.4 0.5 10
    endloop
  endfacet
  facet normal 0 0 -1
    outer loop
      vertex 16.4 0.5 10
      vertex 16.4 -0.5 10
      vertex 15.6 0.5 10
    endloop
  endfacet
  facet normal 0 0 -1
    outer loop
      vertex 15.6 0.5 10
      vertex 16.4 -0.5 10
      vertex 15.6 -0.5 10
    endloop
  endfacet
  facet normal 0 0 1
    outer loop
      vertex 16.4 -0.5 5
      vertex 16.4 0.5 5
      vertex 15.6 0.5 5
    endloop
  endfacet
  facet normal 0 0 1
    outer loop
      vertex 15.6 -0.5 5
      vertex 16.4 -0.5 5
      vertex 15.6 0.5 5
    endloop
  endfacet
  facet normal 0 1 0
    outer loop
      vertex 16.4 -0.5 5
      vertex 15.6 -0.5 5
      vertex 16.4 -0.5 10
    endloop
  endfacet
  facet normal 0 1 0
    outer loop
      vertex 16.4 -0.5 10
      vertex 15.6 -0.5 5
      vertex 15.6 -0.5 10
    endloop
  endfacet
  facet normal 1 0 2.22045e-16
    outer loop
      vertex 18.4 0.498102 10.9644
      vertex 18.4 0 11
      vertex 18.4 -0.498102 10.9644
    endloop
  endfacet
  facet normal 1 0 2.22045e-16
    outer loop
      vertex 18.4 -1.45395 10.6837
      vertex 18.4 0.498102 10.9644
      vertex 18.4 -0.986064 10.8582
    endloop
  endfacet
  facet normal 1 0 2.22045e-16
    outer loop
      vertex 18.4 -0.986064 10.8582
      vertex 18.4 0.498102 10.9644
      vertex 18.4 -0.498102 10.9644
    endloop
  endfacet
  facet normal 1 0 2.22045e-16
    outer loop
      vertex 18.4 -1.89224 10.4444
      vertex 18.4 0.498102 10.9644
      vertex 18.4 -1.45395 10.6837
    endloop
  endfacet
  facet normal 1 0 2.22045e-16
    outer loop
      vertex 18.4 -2.29201 10.1451
      vertex 18.4 0.498102 10.9644
      vertex 18.4 -1.89224 10.4444
    endloop
  endfacet
  facet normal 1 0 2.22045e-16
    outer loop
      vertex 18.4 -2.64512 9.79201
      vertex 18.4 0.498102 10.9644
      vertex 18.4 -2.29201 10.1451
    endloop
  endfacet
  facet normal 1 0 2.22045e-16
    outer loop
      vertex 18.4 -0.974098 10.3375
      vertex 18.4 0.498102 10.9644
      vertex 18.4 -2.64512 9.79201
    endloop
  endfacet
  facet normal 1 0 2.22045e-16
    outer loop
      vertex 18.4 0.493784 10.4591
      vertex 18.4 0.974098 10.3375
      vertex 18.4 0.498102 10.9644
    endloop
  endfacet
  facet normal 1 0 2.22045e-16
    outer loop
      vertex 18.4 -2.98975 7.25226
      vertex 18.4 -2.98975 7.74774
      vertex 18.4 -3.46437 7.0019
    endloop
  endfacet
  facet normal 1 0 2.22045e-16
    outer loop
      vertex 18.4 0.974098 10.3375
      vertex 18.4 1.42784 10.1384
      vertex 18.4 0.498102 10.9644
    endloop
  endfacet
  facet normal 1 0 2.22045e-16
    outer loop
      vertex 18.4 2.98975 7.74774
      vertex 18.4 2.98975 7.25226
      vertex 18.4 3.46437 7.0019
    endloop
  endfacet
  facet normal 1 0 2.22045e-16
    outer loop
      vertex 18.4 2.5115 9.14084
      vertex 18.4 2.74732 8.70509
      vertex 18.4 3.46437 7.9981
    endloop
  endfacet
  facet normal 1 0 2.22045e-16
    outer loop
      vertex 18.4 2.20717 9.53184
      vertex 18.4 2.5115 9.14084
      vertex 18.4 3.35823 8.48606
    endloop
  endfacet
  facet normal 1 0 2.22045e-16
    outer loop
      vertex 18.4 2.94439 9.39224
      vertex 18.4 0.498102 10.9644
      vertex 18.4 3.18371 8.95395
    endloop
  endfacet
  facet normal 1 0 2.22045e-16
    outer loop
      vertex 18.4 2.64512 9.79201
      vertex 18.4 0.498102 10.9644
      vertex 18.4 2.94439 9.39224
    endloop
  endfacet
  facet normal 1 0 2.22045e-16
    outer loop
      vertex 18.4 2.29201 10.1451
      vertex 18.4 0.498102 10.9644
      vertex 18.4 2.64512 9.79201
    endloop
  endfacet
  facet normal 1 0 2.22045e-16
    outer loop
      vertex 18.4 1.89224 10.4444
      vertex 18.4 0.498102 10.9644
      vertex 18.4 2.29201 10.1451
    endloop
  endfacet
  facet normal 1 0 2.22045e-16
    outer loop
      vertex 18.4 1.45395 10.6837
      vertex 18.4 0.498102 10.9644
      vertex 18.4 1.89224 10.4444
    endloop
  endfacet
  facet normal 1 0 2.22045e-16
    outer loop
      vertex 18.4 0.986064 10.8582
      vertex 18.4 0.498102 10.9644
      vertex 18.4 1.45395 10.6837
    endloop
  endfacet
  facet normal 1 0 2.22045e-16
    outer loop
      vertex 18.4 -1.84264 5.13258
      vertex 18.4 -2.20717 5.46815
      vertex 18.4 -2.29201 4.85488
    endloop
  endfacet
  facet normal 1 0 2.22045e-16
    outer loop
      vertex 18.4 -2.9082 8.23646
      vertex 18.4 -2.74732 8.70509
      vertex 18.4 -3.46437 7.9981
    endloop
  endfacet
  facet normal 1 0 2.22045e-16
    outer loop
      vertex 18.4 0 4.5
      vertex 18.4 -0.493784 4.54092
      vertex 18.4 -0.498102 4.03563
    endloop
  endfacet
  facet normal 1 0 2.22045e-16
    outer loop
      vertex 18.4 2.98975 7.25226
      vertex 18.4 2.9082 6.76354
      vertex 18.4 3.35823 6.51394
    endloop
  endfacet
  facet normal 1 0 2.22045e-16
    outer loop
      vertex 18.4 2.9082 8.23646
      vertex 18.4 2.98975 7.74774
      vertex 18.4 3.5 7.5
    endloop
  endfacet
  facet normal 1 0 2.22045e-16
    outer loop
      vertex 18.4 0.974098 4.66255
      vertex 18.4 0.493784 4.54092
      vertex 18.4 0.498102 4.03563
    endloop
  endfacet
  facet normal 1 0 2.22045e-16
    outer loop
      vertex 18.4 3.18371 8.95395
      vertex 18.4 1.84264 9.86742
      vertex 18.4 3.35823 8.48606
    endloop
  endfacet
  facet normal 1 0 2.22045e-16
    outer loop
      vertex 18.4 3.18371 8.95395
      vertex 18.4 0.498102 10.9644
      vertex 18.4 1.84264 9.86742
    endloop
  endfacet
  facet normal 1 0 2.22045e-16
    outer loop
      vertex 18.4 1.84264 9.86742
      vertex 18.4 2.20717 9.53184
      vertex 18.4 3.35823 8.48606
    endloop
  endfacet
  facet normal 1 0 2.22045e-16
    outer loop
      vertex 18.4 3.35823 8.48606
      vertex 18.4 2.5115 9.14084
      vertex 18.4 3.46437 7.9981
    endloop
  endfacet
  facet normal 1 0 2.22045e-16
    outer loop
      vertex 18.4 3.46437 7.9981
      vertex 18.4 2.74732 8.70509
      vertex 18.4 3.5 7.5
    endloop
  endfacet
  facet normal 1 0 2.22045e-16
    outer loop
      vertex 18.4 2.74732 8.70509
      vertex 18.4 2.9082 8.23646
      vertex 18.4 3.5 7.5
    endloop
  endfacet
  facet normal 1 0 2.22045e-16
    outer loop
      vertex 18.4 1.42784 10.1384
      vertex 18.4 1.84264 9.86742
      vertex 18.4 0.498102 10.9644
    endloop
  endfacet
  facet normal 1 0 2.22045e-16
    outer loop
      vertex 18.4 3.5 7.5
      vertex 18.4 2.98975 7.74774
      vertex 18.4 3.46437 7.0019
    endloop
  endfacet
  facet normal 1 0 2.22045e-16
    outer loop
      vertex 18.4 3.46437 7.0019
      vertex 18.4 2.98975 7.25226
      vertex 18.4 3.35823 6.51394
    endloop
  endfacet
  facet normal 1 0 2.22045e-16
    outer loop
      vertex 18.4 3.35823 6.51394
      vertex 18.4 2.9082 6.76354
      vertex 18.4 3.18371 6.04605
    endloop
  endfacet
  facet normal 1 0 2.22045e-16
    outer loop
      vertex 18.4 3.18371 6.04605
      vertex 18.4 2.74732 6.29491
      vertex 18.4 2.94439 5.60776
    endloop
  endfacet
  facet normal 1 0 2.22045e-16
    outer loop
      vertex 18.4 2.94439 5.60776
      vertex 18.4 2.5115 5.85916
      vertex 18.4 2.64512 5.20799
    endloop
  endfacet
  facet normal 1 0 2.22045e-16
    outer loop
      vertex 18.4 2.64512 5.20799
      vertex 18.4 2.20717 5.46815
      vertex 18.4 2.29201 4.85488
    endloop
  endfacet
  facet normal 1 0 2.22045e-16
    outer loop
      vertex 18.4 2.29201 4.85488
      vertex 18.4 1.84264 5.13258
      vertex 18.4 1.89224 4.55561
    endloop
  endfacet
  facet normal 1 0 2.22045e-16
    outer loop
      vertex 18.4 1.89224 4.55561
      vertex 18.4 1.42784 4.86158
      vertex 18.4 1.45395 4.31629
    endloop
  endfacet
  facet normal 1 0 2.22045e-16
    outer loop
      vertex 18.4 1.45395 4.31629
      vertex 18.4 0.974098 4.66255
      vertex 18.4 0.986064 4.14177
    endloop
  endfacet
  facet normal 1 0 2.22045e-16
    outer loop
      vertex 18.4 0.498102 4.03563
      vertex 18.4 0.493784 4.54092
      vertex 18.4 0 4
    endloop
  endfacet
  facet normal 1 0 2.22045e-16
    outer loop
      vertex 18.4 0 4
      vertex 18.4 0 4.5
      vertex 18.4 -0.498102 4.03563
    endloop
  endfacet
  facet normal 1 0 2.22045e-16
    outer loop
      vertex 18.4 2.9082 6.76354
      vertex 18.4 2.74732 6.29491
      vertex 18.4 3.18371 6.04605
    endloop
  endfacet
  facet normal 1 0 2.22045e-16
    outer loop
      vertex 18.4 -0.498102 4.03563
      vertex 18.4 -0.493784 4.54092
      vertex 18.4 -0.986064 4.14177
    endloop
  endfacet
  facet normal 1 0 2.22045e-16
    outer loop
      vertex 18.4 2.74732 6.29491
      vertex 18.4 2.5115 5.85916
      vertex 18.4 2.94439 5.60776
    endloop
  endfacet
  facet normal 1 0 2.22045e-16
    outer loop
      vertex 18.4 -0.986064 4.14177
      vertex 18.4 -0.974098 4.66255
      vertex 18.4 -1.45395 4.31629
    endloop
  endfacet
  facet normal 1 0 2.22045e-16
    outer loop
      vertex 18.4 2.5115 5.85916
      vertex 18.4 2.20717 5.46815
      vertex 18.4 2.64512 5.20799
    endloop
  endfacet
  facet normal 1 0 2.22045e-16
    outer loop
      vertex 18.4 -1.45395 4.31629
      vertex 18.4 -1.42784 4.86158
      vertex 18.4 -1.89224 4.55561
    endloop
  endfacet
  facet normal 1 0 2.22045e-16
    outer loop
      vertex 18.4 2.20717 5.46815
      vertex 18.4 1.84264 5.13258
      vertex 18.4 2.29201 4.85488
    endloop
  endfacet
  facet normal 1 0 2.22045e-16
    outer loop
      vertex 18.4 -1.89224 4.55561
      vertex 18.4 -1.84264 5.13258
      vertex 18.4 -2.29201 4.85488
    endloop
  endfacet
  facet normal 1 0 2.22045e-16
    outer loop
      vertex 18.4 1.84264 5.13258
      vertex 18.4 1.42784 4.86158
      vertex 18.4 1.89224 4.55561
    endloop
  endfacet
  facet normal 1 0 2.22045e-16
    outer loop
      vertex 18.4 -2.29201 4.85488
      vertex 18.4 -2.20717 5.46815
      vertex 18.4 -2.64512 5.20799
    endloop
  endfacet
  facet normal 1 0 2.22045e-16
    outer loop
      vertex 18.4 1.42784 4.86158
      vertex 18.4 0.974098 4.66255
      vertex 18.4 1.45395 4.31629
    endloop
  endfacet
  facet normal 1 0 2.22045e-16
    outer loop
      vertex 18.4 -2.64512 5.20799
      vertex 18.4 -2.5115 5.85916
      vertex 18.4 -2.94439 5.60776
    endloop
  endfacet
  facet normal 1 0 2.22045e-16
    outer loop
      vertex 18.4 -2.94439 5.60776
      vertex 18.4 -2.74732 6.29491
      vertex 18.4 -3.18371 6.04605
    endloop
  endfacet
  facet normal 1 0 2.22045e-16
    outer loop
      vertex 18.4 0.974098 4.66255
      vertex 18.4 0.498102 4.03563
      vertex 18.4 0.986064 4.14177
    endloop
  endfacet
  facet normal 1 0 2.22045e-16
    outer loop
      vertex 18.4 -3.18371 6.04605
      vertex 18.4 -2.9082 6.76354
      vertex 18.4 -3.35823 6.51394
    endloop
  endfacet
  facet normal 1 0 2.22045e-16
    outer loop
      vertex 18.4 0.493784 4.54092
      vertex 18.4 0 4.5
      vertex 18.4 0 4
    endloop
  endfacet
  facet normal 1 0 2.22045e-16
    outer loop
      vertex 18.4 -3.35823 6.51394
      vertex 18.4 -2.98975 7.25226
      vertex 18.4 -3.46437 7.0019
    endloop
  endfacet
  facet normal 1 0 2.22045e-16
    outer loop
      vertex 18.4 -3.46437 7.0019
      vertex 18.4 -2.98975 7.74774
      vertex 18.4 -3.5 7.5
    endloop
  endfacet
  facet normal 1 0 2.22045e-16
    outer loop
      vertex 18.4 -3.5 7.5
      vertex 18.4 -2.9082 8.23646
      vertex 18.4 -3.46437 7.9981
    endloop
  endfacet
  facet normal 1 0 2.22045e-16
    outer loop
      vertex 18.4 -0.493784 4.54092
      vertex 18.4 -0.974098 4.66255
      vertex 18.4 -0.986064 4.14177
    endloop
  endfacet
  facet normal 1 0 2.22045e-16
    outer loop
      vertex 18.4 -3.46437 7.9981
      vertex 18.4 -2.74732 8.70509
      vertex 18.4 -3.35823 8.48606
    endloop
  endfacet
  facet normal 1 0 2.22045e-16
    outer loop
      vertex 18.4 -0.974098 4.66255
      vertex 18.4 -1.42784 4.86158
      vertex 18.4 -1.45395 4.31629
    endloop
  endfacet
  facet normal 1 0 2.22045e-16
    outer loop
      vertex 18.4 -3.35823 8.48606
      vertex 18.4 -2.5115 9.14084
      vertex 18.4 -3.18371 8.95395
    endloop
  endfacet
  facet normal 1 0 2.22045e-16
    outer loop
      vertex 18.4 -1.42784 4.86158
      vertex 18.4 -1.84264 5.13258
      vertex 18.4 -1.89224 4.55561
    endloop
  endfacet
  facet normal 1 0 2.22045e-16
    outer loop
      vertex 18.4 -3.18371 8.95395
      vertex 18.4 -2.20717 9.53184
      vertex 18.4 -2.94439 9.39224
    endloop
  endfacet
  facet normal 1 0 2.22045e-16
    outer loop
      vertex 18.4 -2.20717 9.53184
      vertex 18.4 -1.84264 9.86742
      vertex 18.4 -2.94439 9.39224
    endloop
  endfacet
  facet normal 1 0 2.22045e-16
    outer loop
      vertex 18.4 -2.94439 9.39224
      vertex 18.4 -1.42784 10.1384
      vertex 18.4 -2.64512 9.79201
    endloop
  endfacet
  facet normal 1 0 2.22045e-16
    outer loop
      vertex 18.4 -2.74732 8.70509
      vertex 18.4 -2.5115 9.14084
      vertex 18.4 -3.35823 8.48606
    endloop
  endfacet
  facet normal 1 0 2.22045e-16
    outer loop
      vertex 18.4 -1.42784 10.1384
      vertex 18.4 -0.974098 10.3375
      vertex 18.4 -2.64512 9.79201
    endloop
  endfacet
  facet normal 1 0 2.22045e-16
    outer loop
      vertex 18.4 -0.974098 10.3375
      vertex 18.4 -0.493784 10.4591
      vertex 18.4 0.498102 10.9644
    endloop
  endfacet
  facet normal 1 0 2.22045e-16
    outer loop
      vertex 18.4 -1.84264 9.86742
      vertex 18.4 -1.42784 10.1384
      vertex 18.4 -2.94439 9.39224
    endloop
  endfacet
  facet normal 1 0 2.22045e-16
    outer loop
      vertex 18.4 -0.493784 10.4591
      vertex 18.4 0 10.5
      vertex 18.4 0.498102 10.9644
    endloop
  endfacet
  facet normal 1 0 2.22045e-16
    outer loop
      vertex 18.4 -2.20717 5.46815
      vertex 18.4 -2.5115 5.85916
      vertex 18.4 -2.64512 5.20799
    endloop
  endfacet
  facet normal 1 0 2.22045e-16
    outer loop
      vertex 18.4 -2.5115 5.85916
      vertex 18.4 -2.74732 6.29491
      vertex 18.4 -2.94439 5.60776
    endloop
  endfacet
  facet normal 1 0 2.22045e-16
    outer loop
      vertex 18.4 -2.74732 6.29491
      vertex 18.4 -2.9082 6.76354
      vertex 18.4 -3.18371 6.04605
    endloop
  endfacet
  facet normal 1 0 2.22045e-16
    outer loop
      vertex 18.4 -2.9082 6.76354
      vertex 18.4 -2.98975 7.25226
      vertex 18.4 -3.35823 6.51394
    endloop
  endfacet
  facet normal 1 0 2.22045e-16
    outer loop
      vertex 18.4 -2.5115 9.14084
      vertex 18.4 -2.20717 9.53184
      vertex 18.4 -3.18371 8.95395
    endloop
  endfacet
  facet normal 1 0 2.22045e-16
    outer loop
      vertex 18.4 -2.98975 7.74774
      vertex 18.4 -2.9082 8.23646
      vertex 18.4 -3.5 7.5
    endloop
  endfacet
  facet normal 1 0 2.22045e-16
    outer loop
      vertex 18.4 0 10.5
      vertex 18.4 0.493784 10.4591
      vertex 18.4 0.498102 10.9644
    endloop
  endfacet
  facet normal 1 0 2.22045e-16
    outer loop
      vertex 16.4 -0.493784 10.4591
      vertex 16.4 -0.974098 10.3375
      vertex 16.4 -1.42784 10.1384
    endloop
  endfacet
  facet normal 1 0 2.22045e-16
    outer loop
      vertex 16.4 -2.20717 9.53184
      vertex 16.4 -0.493784 10.4591
      vertex 16.4 -1.84264 9.86742
    endloop
  endfacet
  facet normal 1 0 2.22045e-16
    outer loop
      vertex 16.4 -1.84264 9.86742
      vertex 16.4 -0.493784 10.4591
      vertex 16.4 -1.42784 10.1384
    endloop
  endfacet
  facet normal 1 0 2.22045e-16
    outer loop
      vertex 16.4 -2.5115 9.14084
      vertex 16.4 -0.493784 10.4591
      vertex 16.4 -2.20717 9.53184
    endloop
  endfacet
  facet normal 1 0 2.22045e-16
    outer loop
      vertex 16.4 -2.74732 8.70509
      vertex 16.4 -0.493784 10.4591
      vertex 16.4 -2.5115 9.14084
    endloop
  endfacet
  facet normal 1 0 2.22045e-16
    outer loop
      vertex 16.4 -2.9082 8.23646
      vertex 16.4 -0.493784 10.4591
      vertex 16.4 -2.74732 8.70509
    endloop
  endfacet
  facet normal 1 0 2.22045e-16
    outer loop
      vertex 16.4 -2.98975 7.74774
      vertex 16.4 -0.493784 10.4591
      vertex 16.4 -2.9082 8.23646
    endloop
  endfacet
  facet normal 1 0 2.22045e-16
    outer loop
      vertex 16.4 -2.98975 7.25226
      vertex 16.4 -0.493784 10.4591
      vertex 16.4 -2.98975 7.74774
    endloop
  endfacet
  facet normal 1 0 2.22045e-16
    outer loop
      vertex 16.4 -2.9082 6.76354
      vertex 16.4 -0.493784 10.4591
      vertex 16.4 -2.98975 7.25226
    endloop
  endfacet
  facet normal 1 0 2.22045e-16
    outer loop
      vertex 16.4 -2.74732 6.29491
      vertex 16.4 -0.493784 10.4591
      vertex 16.4 -2.9082 6.76354
    endloop
  endfacet
  facet normal 1 0 2.22045e-16
    outer loop
      vertex 16.4 -2.5115 5.85916
      vertex 16.4 -0.493784 10.4591
      vertex 16.4 -2.74732 6.29491
    endloop
  endfacet
  facet normal 1 0 2.22045e-16
    outer loop
      vertex 16.4 -2.20717 5.46815
      vertex 16.4 -0.493784 10.4591
      vertex 16.4 -2.5115 5.85916
    endloop
  endfacet
  facet normal 1 0 2.22045e-16
    outer loop
      vertex 16.4 -1.84264 5.13258
      vertex 16.4 -0.493784 10.4591
      vertex 16.4 -2.20717 5.46815
    endloop
  endfacet
  facet normal 1 0 2.22045e-16
    outer loop
      vertex 16.4 -1.42784 4.86158
      vertex 16.4 -0.493784 10.4591
      vertex 16.4 -1.84264 5.13258
    endloop
  endfacet
  facet normal 1 0 2.22045e-16
    outer loop
      vertex 16.4 -0.974098 4.66255
      vertex 16.4 -0.493784 10.4591
      vertex 16.4 -1.42784 4.86158
    endloop
  endfacet
  facet normal 1 0 2.22045e-16
    outer loop
      vertex 16.4 -0.5 10
      vertex 16.4 -0.493784 10.4591
      vertex 16.4 -0.974098 4.66255
    endloop
  endfacet
  facet normal 1 0 2.22045e-16
    outer loop
      vertex 16.4 0.5 5
      vertex 16.4 -0.5 5
      vertex 16.4 -0.493784 4.54092
    endloop
  endfacet
  facet normal 1 0 2.22045e-16
    outer loop
      vertex 16.4 0.5 5
      vertex 16.4 -0.493784 4.54092
      vertex 16.4 0 4.5
    endloop
  endfacet
  facet normal 1 0 2.22045e-16
    outer loop
      vertex 16.4 0.5 5
      vertex 16.4 0 4.5
      vertex 16.4 0.493784 4.54092
    endloop
  endfacet
  facet normal 1 0 2.22045e-16
    outer loop
      vertex 16.4 2.20717 9.53184
      vertex 16.4 -0.493784 10.4591
      vertex 16.4 2.5115 9.14084
    endloop
  endfacet
  facet normal 1 0 2.22045e-16
    outer loop
      vertex 16.4 1.84264 9.86742
      vertex 16.4 -0.493784 10.4591
      vertex 16.4 2.20717 9.53184
    endloop
  endfacet
  facet normal 1 0 2.22045e-16
    outer loop
      vertex 16.4 1.42784 10.1384
      vertex 16.4 -0.493784 10.4591
      vertex 16.4 1.84264 9.86742
    endloop
  endfacet
  facet normal 1 0 2.22045e-16
    outer loop
      vertex 16.4 0.974098 10.3375
      vertex 16.4 -0.493784 10.4591
      vertex 16.4 1.42784 10.1384
    endloop
  endfacet
  facet normal 1 0 2.22045e-16
    outer loop
      vertex 16.4 0.493784 10.4591
      vertex 16.4 -0.493784 10.4591
      vertex 16.4 0.974098 10.3375
    endloop
  endfacet
  facet normal 1 0 2.22045e-16
    outer loop
      vertex 16.4 0 10.5
      vertex 16.4 -0.493784 10.4591
      vertex 16.4 0.493784 10.4591
    endloop
  endfacet
  facet normal 1 0 2.22045e-16
    outer loop
      vertex 16.4 2.5115 9.14084
      vertex 16.4 0.5 10
      vertex 16.4 2.74732 8.70509
    endloop
  endfacet
  facet normal 1 0 2.22045e-16
    outer loop
      vertex 16.4 2.5115 9.14084
      vertex 16.4 -0.493784 10.4591
      vertex 16.4 0.5 10
    endloop
  endfacet
  facet normal 1 0 2.22045e-16
    outer loop
      vertex 16.4 0.974098 4.66255
      vertex 16.4 0.5 5
      vertex 16.4 0.493784 4.54092
    endloop
  endfacet
  facet normal 1 0 2.22045e-16
    outer loop
      vertex 16.4 -0.493784 4.54092
      vertex 16.4 -0.5 5
      vertex 16.4 -0.974098 4.66255
    endloop
  endfacet
  facet normal 1 0 2.22045e-16
    outer loop
      vertex 16.4 -0.5 5
      vertex 16.4 -0.5 10
      vertex 16.4 -0.974098 4.66255
    endloop
  endfacet
  facet normal 1 0 2.22045e-16
    outer loop
      vertex 16.4 0.5 10
      vertex 16.4 2.9082 8.23646
      vertex 16.4 2.74732 8.70509
    endloop
  endfacet
  facet normal 1 0 2.22045e-16
    outer loop
      vertex 16.4 0.5 10
      vertex 16.4 2.98975 7.74774
      vertex 16.4 2.9082 8.23646
    endloop
  endfacet
  facet normal 1 0 2.22045e-16
    outer loop
      vertex 16.4 0.5 10
      vertex 16.4 2.98975 7.25226
      vertex 16.4 2.98975 7.74774
    endloop
  endfacet
  facet normal 1 0 2.22045e-16
    outer loop
      vertex 16.4 0.5 10
      vertex 16.4 2.9082 6.76354
      vertex 16.4 2.98975 7.25226
    endloop
  endfacet
  facet normal 1 0 2.22045e-16
    outer loop
      vertex 16.4 0.5 10
      vertex 16.4 2.74732 6.29491
      vertex 16.4 2.9082 6.76354
    endloop
  endfacet
  facet normal 1 0 2.22045e-16
    outer loop
      vertex 16.4 0.5 10
      vertex 16.4 2.5115 5.85916
      vertex 16.4 2.74732 6.29491
    endloop
  endfacet
  facet normal 1 0 2.22045e-16
    outer loop
      vertex 16.4 0.5 10
      vertex 16.4 2.20717 5.46815
      vertex 16.4 2.5115 5.85916
    endloop
  endfacet
  facet normal 1 0 2.22045e-16
    outer loop
      vertex 16.4 0.5 10
      vertex 16.4 1.84264 5.13258
      vertex 16.4 2.20717 5.46815
    endloop
  endfacet
  facet normal 1 0 2.22045e-16
    outer loop
      vertex 16.4 0.5 10
      vertex 16.4 1.42784 4.86158
      vertex 16.4 1.84264 5.13258
    endloop
  endfacet
  facet normal 1 0 2.22045e-16
    outer loop
      vertex 16.4 0.5 10
      vertex 16.4 0.974098 4.66255
      vertex 16.4 1.42784 4.86158
    endloop
  endfacet
  facet normal 1 0 2.22045e-16
    outer loop
      vertex 16.4 0.5 10
      vertex 16.4 0.5 5
      vertex 16.4 0.974098 4.66255
    endloop
  endfacet
  facet normal 1 0 2.22045e-16
    outer loop
      vertex 16.4 -0.5 10
      vertex 16.4 0.5 10
      vertex 16.4 -0.493784 10.4591
    endloop
  endfacet
  facet normal 2.21286e-16 0.0825791 -0.996585
    outer loop
      vertex 18.4 -0.493784 10.4591
      vertex 16.4 -0.493784 10.4591
      vertex 18.4 0 10.5
    endloop
  endfacet
  facet normal 2.21286e-16 0.0825791 -0.996585
    outer loop
      vertex 18.4 0 10.5
      vertex 16.4 -0.493784 10.4591
      vertex 16.4 0 10.5
    endloop
  endfacet
  facet normal 2.1525e-16 0.245485 -0.9694
    outer loop
      vertex 18.4 -0.974098 10.3375
      vertex 16.4 -0.974098 10.3375
      vertex 18.4 -0.493784 10.4591
    endloop
  endfacet
  facet normal 2.1525e-16 0.245485 -0.9694
    outer loop
      vertex 18.4 -0.493784 10.4591
      vertex 16.4 -0.974098 10.3375
      vertex 16.4 -0.493784 10.4591
    endloop
  endfacet
  facet normal 2.03342e-16 0.401696 -0.915773
    outer loop
      vertex 18.4 -1.42784 10.1384
      vertex 16.4 -1.42784 10.1384
      vertex 18.4 -0.974098 10.3375
    endloop
  endfacet
  facet normal 2.03342e-16 0.401696 -0.915773
    outer loop
      vertex 18.4 -0.974098 10.3375
      vertex 16.4 -1.42784 10.1384
      vertex 16.4 -0.974098 10.3375
    endloop
  endfacet
  facet normal 1.85888e-16 0.546947 -0.837167
    outer loop
      vertex 18.4 -1.84264 9.86742
      vertex 16.4 -1.84264 9.86742
      vertex 18.4 -1.42784 10.1384
    endloop
  endfacet
  facet normal 1.85888e-16 0.546947 -0.837167
    outer loop
      vertex 18.4 -1.42784 10.1384
      vertex 16.4 -1.84264 9.86742
      vertex 16.4 -1.42784 10.1384
    endloop
  endfacet
  facet normal 1.63364e-16 0.677281 -0.735724
    outer loop
      vertex 18.4 -2.20717 9.53184
      vertex 16.4 -2.20717 9.53184
      vertex 18.4 -1.84264 9.86742
    endloop
  endfacet
  facet normal 1.63364e-16 0.677281 -0.735724
    outer loop
      vertex 18.4 -1.84264 9.86742
      vertex 16.4 -2.20717 9.53184
      vertex 16.4 -1.84264 9.86742
    endloop
  endfacet
  facet normal 1.36382e-16 0.789142 -0.614211
    outer loop
      vertex 18.4 -2.5115 9.14084
      vertex 16.4 -2.5115 9.14084
      vertex 18.4 -2.20717 9.53184
    endloop
  endfacet
  facet normal 1.36382e-16 0.789142 -0.614211
    outer loop
      vertex 18.4 -2.20717 9.53184
      vertex 16.4 -2.5115 9.14084
      vertex 16.4 -2.20717 9.53184
    endloop
  endfacet
  facet normal 1.05682e-16 0.879473 -0.475948
    outer loop
      vertex 18.4 -2.74732 8.70509
      vertex 16.4 -2.74732 8.70509
      vertex 18.4 -2.5115 9.14084
    endloop
  endfacet
  facet normal 1.05682e-16 0.879473 -0.475948
    outer loop
      vertex 18.4 -2.5115 9.14084
      vertex 16.4 -2.74732 8.70509
      vertex 16.4 -2.5115 9.14084
    endloop
  endfacet
  facet normal 7.20978e-17 0.945817 -0.3247
    outer loop
      vertex 18.4 -2.9082 8.23646
      vertex 16.4 -2.9082 8.23646
      vertex 18.4 -2.74732 8.70509
    endloop
  endfacet
  facet normal 7.20978e-17 0.945817 -0.3247
    outer loop
      vertex 18.4 -2.74732 8.70509
      vertex 16.4 -2.9082 8.23646
      vertex 16.4 -2.74732 8.70509
    endloop
  endfacet
  facet normal 3.65471e-17 0.986362 -0.164593
    outer loop
      vertex 18.4 -2.98975 7.74774
      vertex 16.4 -2.98975 7.74774
      vertex 18.4 -2.9082 8.23646
    endloop
  endfacet
  facet normal 3.65471e-17 0.986362 -0.164593
    outer loop
      vertex 18.4 -2.9082 8.23646
      vertex 16.4 -2.98975 7.74774
      vertex 16.4 -2.9082 8.23646
    endloop
  endfacet
  facet normal 0 1 0
    outer loop
      vertex 18.4 -2.98975 7.25226
      vertex 16.4 -2.98975 7.25226
      vertex 18.4 -2.98975 7.74774
    endloop
  endfacet
  facet normal 0 1 0
    outer loop
      vertex 18.4 -2.98975 7.74774
      vertex 16.4 -2.98975 7.25226
      vertex 16.4 -2.98975 7.74774
    endloop
  endfacet
  facet normal -3.65471e-17 0.986362 0.164593
    outer loop
      vertex 18.4 -2.9082 6.76354
      vertex 16.4 -2.9082 6.76354
      vertex 18.4 -2.98975 7.25226
    endloop
  endfacet
  facet normal -3.65471e-17 0.986362 0.164593
    outer loop
      vertex 18.4 -2.98975 7.25226
      vertex 16.4 -2.9082 6.76354
      vertex 16.4 -2.98975 7.25226
    endloop
  endfacet
  facet normal -7.20978e-17 0.945817 0.3247
    outer loop
      vertex 18.4 -2.74732 6.29491
      vertex 16.4 -2.74732 6.29491
      vertex 18.4 -2.9082 6.76354
    endloop
  endfacet
  facet normal -7.20978e-17 0.945817 0.3247
    outer loop
      vertex 18.4 -2.9082 6.76354
      vertex 16.4 -2.74732 6.29491
      vertex 16.4 -2.9082 6.76354
    endloop
  endfacet
  facet normal -1.05682e-16 0.879473 0.475948
    outer loop
      vertex 18.4 -2.5115 5.85916
      vertex 16.4 -2.5115 5.85916
      vertex 18.4 -2.74732 6.29491
    endloop
  endfacet
  facet normal -1.05682e-16 0.879473 0.475948
    outer loop
      vertex 18.4 -2.74732 6.29491
      vertex 16.4 -2.5115 5.85916
      vertex 16.4 -2.74732 6.29491
    endloop
  endfacet
  facet normal -1.36382e-16 0.789142 0.614211
    outer loop
      vertex 18.4 -2.20717 5.46815
      vertex 16.4 -2.20717 5.46815
      vertex 18.4 -2.5115 5.85916
    endloop
  endfacet
  facet normal -1.36382e-16 0.789142 0.614211
    outer loop
      vertex 18.4 -2.5115 5.85916
      vertex 16.4 -2.20717 5.46815
      vertex 16.4 -2.5115 5.85916
    endloop
  endfacet
  facet normal -1.63364e-16 0.677281 0.735724
    outer loop
      vertex 18.4 -2.20717 5.46815
      vertex 18.4 -1.84264 5.13258
      vertex 16.4 -1.84264 5.13258
    endloop
  endfacet
  facet normal -1.63364e-16 0.677281 0.735724
    outer loop
      vertex 16.4 -2.20717 5.46815
      vertex 18.4 -2.20717 5.46815
      vertex 16.4 -1.84264 5.13258
    endloop
  endfacet
  facet normal -1.85888e-16 0.546947 0.837167
    outer loop
      vertex 18.4 -1.84264 5.13258
      vertex 18.4 -1.42784 4.86158
      vertex 16.4 -1.42784 4.86158
    endloop
  endfacet
  facet normal -1.85888e-16 0.546947 0.837167
    outer loop
      vertex 16.4 -1.84264 5.13258
      vertex 18.4 -1.84264 5.13258
      vertex 16.4 -1.42784 4.86158
    endloop
  endfacet
  facet normal -2.03342e-16 0.401696 0.915773
    outer loop
      vertex 18.4 -1.42784 4.86158
      vertex 18.4 -0.974098 4.66255
      vertex 16.4 -0.974098 4.66255
    endloop
  endfacet
  facet normal -2.03342e-16 0.401696 0.915773
    outer loop
      vertex 16.4 -1.42784 4.86158
      vertex 18.4 -1.42784 4.86158
      vertex 16.4 -0.974098 4.66255
    endloop
  endfacet
  facet normal -2.1525e-16 0.245485 0.9694
    outer loop
      vertex 18.4 -0.974098 4.66255
      vertex 18.4 -0.493784 4.54092
      vertex 16.4 -0.493784 4.54092
    endloop
  endfacet
  facet normal -2.1525e-16 0.245485 0.9694
    outer loop
      vertex 16.4 -0.974098 4.66255
      vertex 18.4 -0.974098 4.66255
      vertex 16.4 -0.493784 4.54092
    endloop
  endfacet
  facet normal -2.21286e-16 0.0825791 0.996585
    outer loop
      vertex 18.4 -0.493784 4.54092
      vertex 18.4 0 4.5
      vertex 16.4 0 4.5
    endloop
  endfacet
  facet normal -2.21286e-16 0.0825791 0.996585
    outer loop
      vertex 16.4 -0.493784 4.54092
      vertex 18.4 -0.493784 4.54092
      vertex 16.4 0 4.5
    endloop
  endfacet
  facet normal -2.21286e-16 -0.0825791 0.996585
    outer loop
      vertex 16.4 0 4.5
      vertex 18.4 0 4.5
      vertex 18.4 0.493784 4.54092
    endloop
  endfacet
  facet normal -2.21286e-16 -0.0825791 0.996585
    outer loop
      vertex 16.4 0.493784 4.54092
      vertex 16.4 0 4.5
      vertex 18.4 0.493784 4.54092
    endloop
  endfacet
  facet normal -2.1525e-16 -0.245485 0.9694
    outer loop
      vertex 16.4 0.493784 4.54092
      vertex 18.4 0.493784 4.54092
      vertex 18.4 0.974098 4.66255
    endloop
  endfacet
  facet normal -2.1525e-16 -0.245485 0.9694
    outer loop
      vertex 16.4 0.974098 4.66255
      vertex 16.4 0.493784 4.54092
      vertex 18.4 0.974098 4.66255
    endloop
  endfacet
  facet normal -2.03342e-16 -0.401696 0.915773
    outer loop
      vertex 16.4 0.974098 4.66255
      vertex 18.4 0.974098 4.66255
      vertex 18.4 1.42784 4.86158
    endloop
  endfacet
  facet normal -2.03342e-16 -0.401696 0.915773
    outer loop
      vertex 16.4 1.42784 4.86158
      vertex 16.4 0.974098 4.66255
      vertex 18.4 1.42784 4.86158
    endloop
  endfacet
  facet normal -1.85888e-16 -0.546947 0.837167
    outer loop
      vertex 16.4 1.42784 4.86158
      vertex 18.4 1.42784 4.86158
      vertex 18.4 1.84264 5.13258
    endloop
  endfacet
  facet normal -1.85888e-16 -0.546947 0.837167
    outer loop
      vertex 16.4 1.84264 5.13258
      vertex 16.4 1.42784 4.86158
      vertex 18.4 1.84264 5.13258
    endloop
  endfacet
  facet normal -1.63364e-16 -0.677281 0.735724
    outer loop
      vertex 16.4 1.84264 5.13258
      vertex 18.4 1.84264 5.13258
      vertex 18.4 2.20717 5.46815
    endloop
  endfacet
  facet normal -1.63364e-16 -0.677281 0.735724
    outer loop
      vertex 16.4 2.20717 5.46815
      vertex 16.4 1.84264 5.13258
      vertex 18.4 2.20717 5.46815
    endloop
  endfacet
  facet normal -1.36382e-16 -0.789142 0.614211
    outer loop
      vertex 16.4 2.20717 5.46815
      vertex 18.4 2.20717 5.46815
      vertex 18.4 2.5115 5.85916
    endloop
  endfacet
  facet normal -1.36382e-16 -0.789142 0.614211
    outer loop
      vertex 16.4 2.5115 5.85916
      vertex 16.4 2.20717 5.46815
      vertex 18.4 2.5115 5.85916
    endloop
  endfacet
  facet normal -1.05682e-16 -0.879473 0.475948
    outer loop
      vertex 16.4 2.5115 5.85916
      vertex 18.4 2.5115 5.85916
      vertex 18.4 2.74732 6.29491
    endloop
  endfacet
  facet normal -1.05682e-16 -0.879473 0.475948
    outer loop
      vertex 16.4 2.74732 6.29491
      vertex 16.4 2.5115 5.85916
      vertex 18.4 2.74732 6.29491
    endloop
  endfacet
  facet normal -7.20978e-17 -0.945817 0.3247
    outer loop
      vertex 16.4 2.74732 6.29491
      vertex 18.4 2.74732 6.29491
      vertex 18.4 2.9082 6.76354
    endloop
  endfacet
  facet normal -7.20978e-17 -0.945817 0.3247
    outer loop
      vertex 16.4 2.9082 6.76354
      vertex 16.4 2.74732 6.29491
      vertex 18.4 2.9082 6.76354
    endloop
  endfacet
  facet normal -3.65471e-17 -0.986362 0.164593
    outer loop
      vertex 16.4 2.9082 6.76354
      vertex 18.4 2.9082 6.76354
      vertex 18.4 2.98975 7.25226
    endloop
  endfacet
  facet normal -3.65471e-17 -0.986362 0.164593
    outer loop
      vertex 16.4 2.98975 7.25226
      vertex 16.4 2.9082 6.76354
      vertex 18.4 2.98975 7.25226
    endloop
  endfacet
  facet normal 0 -1 0
    outer loop
      vertex 16.4 2.98975 7.25226
      vertex 18.4 2.98975 7.25226
      vertex 18.4 2.98975 7.74774
    endloop
  endfacet
  facet normal 0 -1 0
    outer loop
      vertex 16.4 2.98975 7.74774
      vertex 16.4 2.98975 7.25226
      vertex 18.4 2.98975 7.74774
    endloop
  endfacet
  facet normal 3.65471e-17 -0.986362 -0.164593
    outer loop
      vertex 16.4 2.98975 7.74774
      vertex 18.4 2.98975 7.74774
      vertex 18.4 2.9082 8.23646
    endloop
  endfacet
  facet normal 3.65471e-17 -0.986362 -0.164593
    outer loop
      vertex 16.4 2.9082 8.23646
      vertex 16.4 2.98975 7.74774
      vertex 18.4 2.9082 8.23646
    endloop
  endfacet
  facet normal 7.20978e-17 -0.945817 -0.3247
    outer loop
      vertex 16.4 2.9082 8.23646
      vertex 18.4 2.9082 8.23646
      vertex 18.4 2.74732 8.70509
    endloop
  endfacet
  facet normal 7.20978e-17 -0.945817 -0.3247
    outer loop
      vertex 16.4 2.74732 8.70509
      vertex 16.4 2.9082 8.23646
      vertex 18.4 2.74732 8.70509
    endloop
  endfacet
  facet normal 1.05682e-16 -0.879473 -0.475948
    outer loop
      vertex 16.4 2.74732 8.70509
      vertex 18.4 2.74732 8.70509
      vertex 18.4 2.5115 9.14084
    endloop
  endfacet
  facet normal 1.05682e-16 -0.879473 -0.475948
    outer loop
      vertex 16.4 2.5115 9.14084
      vertex 16.4 2.74732 8.70509
      vertex 18.4 2.5115 9.14084
    endloop
  endfacet
  facet normal 1.36382e-16 -0.789142 -0.614211
    outer loop
      vertex 16.4 2.5115 9.14084
      vertex 18.4 2.5115 9.14084
      vertex 18.4 2.20717 9.53184
    endloop
  endfacet
  facet normal 1.36382e-16 -0.789142 -0.614211
    outer loop
      vertex 16.4 2.20717 9.53184
      vertex 16.4 2.5115 9.14084
      vertex 18.4 2.20717 9.53184
    endloop
  endfacet
  facet normal 1.63364e-16 -0.677281 -0.735724
    outer loop
      vertex 18.4 2.20717 9.53184
      vertex 18.4 1.84264 9.86742
      vertex 16.4 2.20717 9.53184
    endloop
  endfacet
  facet normal 1.63364e-16 -0.677281 -0.735724
    outer loop
      vertex 16.4 2.20717 9.53184
      vertex 18.4 1.84264 9.86742
      vertex 16.4 1.84264 9.86742
    endloop
  endfacet
  facet normal 1.85888e-16 -0.546947 -0.837167
    outer loop
      vertex 18.4 1.84264 9.86742
      vertex 18.4 1.42784 10.1384
      vertex 16.4 1.84264 9.86742
    endloop
  endfacet
  facet normal 1.85888e-16 -0.546947 -0.837167
    outer loop
      vertex 16.4 1.84264 9.86742
      vertex 18.4 1.42784 10.1384
      vertex 16.4 1.42784 10.1384
    endloop
  endfacet
  facet normal 2.03342e-16 -0.401696 -0.915773
    outer loop
      vertex 18.4 1.42784 10.1384
      vertex 18.4 0.974098 10.3375
      vertex 16.4 1.42784 10.1384
    endloop
  endfacet
  facet normal 2.03342e-16 -0.401696 -0.915773
    outer loop
      vertex 16.4 1.42784 10.1384
      vertex 18.4 0.974098 10.3375
      vertex 16.4 0.974098 10.3375
    endloop
  endfacet
  facet normal 2.1525e-16 -0.245485 -0.9694
    outer loop
      vertex 18.4 0.974098 10.3375
      vertex 18.4 0.493784 10.4591
      vertex 16.4 0.974098 10.3375
    endloop
  endfacet
  facet normal 2.1525e-16 -0.245485 -0.9694
    outer loop
      vertex 16.4 0.974098 10.3375
      vertex 18.4 0.493784 10.4591
      vertex 16.4 0.493784 10.4591
    endloop
  endfacet
  facet normal 2.21286e-16 -0.0825791 -0.996585
    outer loop
      vertex 18.4 0.493784 10.4591
      vertex 18.4 0 10.5
      vertex 16.4 0.493784 10.4591
    endloop
  endfacet
  facet normal 2.21286e-16 -0.0825791 -0.996585
    outer loop
      vertex 16.4 0.493784 10.4591
      vertex 18.4 0 10.5
      vertex 16.4 0 10.5
    endloop
  endfacet
endsolid OpenSCAD_Model
